<svg width="297" height="631" viewBox="0 0 297 631" fill="none" xmlns="http://www.w3.org/2000/svg">
<g clip-path="url(#clip0)">
<path d="M222.759 64.0078H213.472V73.1584H222.759V64.0078Z" fill="#C1C1C1"/>
<path d="M232.037 45.7168H222.76V54.8674H232.037V45.7168Z" fill="#C1C1C1"/>
<path d="M222.759 54.8652H213.472V64.0065H222.759V54.8652Z" fill="#C1C1C1"/>
<path d="M232.037 54.8652H222.76V64.0065H232.037V54.8652Z" fill="#C1C1C1"/>
<path d="M222.759 45.7168H213.472V54.8674H222.759V45.7168Z" fill="#C1C1C1"/>
<path d="M278.445 320.066H269.167V329.217H278.445V320.066Z" fill="white"/>
<path d="M278.445 310.924H269.167V320.065H278.445V310.924Z" fill="white"/>
<path d="M278.445 301.775H269.167V310.926H278.445V301.775Z" fill="white"/>
<path d="M278.445 292.633H269.167V301.774H278.445V292.633Z" fill="white"/>
<path d="M269.167 320.066H259.89V329.217H269.167V320.066Z" fill="white"/>
<path d="M269.167 310.924H259.89V320.065H269.167V310.924Z" fill="white"/>
<path d="M269.167 301.775H259.89V310.926H269.167V301.775Z" fill="white"/>
<path d="M269.167 292.633H259.89V301.774H269.167V292.633Z" fill="white"/>
<path d="M269.167 283.492H259.89V292.633H269.167V283.492Z" fill="white"/>
<path d="M269.167 274.342H259.89V283.492H269.167V274.342Z" fill="white"/>
<path d="M269.167 265.201H259.89V274.342H269.167V265.201Z" fill="white"/>
<path d="M269.167 256.059H259.89V265.2H269.167V256.059Z" fill="white"/>
<path d="M269.167 246.908H259.89V256.059H269.167V246.908Z" fill="white"/>
<path d="M269.167 237.766H259.89V246.907H269.167V237.766Z" fill="white"/>
<path d="M269.167 228.615H259.89V237.766H269.167V228.615Z" fill="white"/>
<path d="M269.167 219.475H259.89V228.616H269.167V219.475Z" fill="white"/>
<path d="M269.167 210.334H259.89V219.475H269.167V210.334Z" fill="white"/>
<path d="M269.167 201.184H259.89V210.334H269.167V201.184Z" fill="white"/>
<path d="M269.167 192.041H259.89V201.182H269.167V192.041Z" fill="white"/>
<path d="M269.167 182.891H259.89V192.041H269.167V182.891Z" fill="white"/>
<path d="M269.167 173.75H259.89V182.891H269.167V173.75Z" fill="white"/>
<path d="M269.167 164.609H259.89V173.751H269.167V164.609Z" fill="white"/>
<path d="M269.167 155.457H259.89V164.608H269.167V155.457Z" fill="white"/>
<path d="M269.167 146.316H259.89V155.458H269.167V146.316Z" fill="white"/>
<path d="M269.167 137.166H259.89V146.317H269.167V137.166Z" fill="white"/>
<path d="M269.167 128.023H259.89V137.165H269.167V128.023Z" fill="white"/>
<path d="M259.889 365.791H250.602V374.942H259.889V365.791Z" fill="white"/>
<path d="M259.889 356.65H250.602V365.792H259.889V356.65Z" fill="white"/>
<path d="M259.889 347.5H250.602V356.651H259.889V347.5Z" fill="white"/>
<path d="M259.889 338.357H250.602V347.499H259.889V338.357Z" fill="white"/>
<path d="M259.889 329.217H250.602V338.358H259.889V329.217Z" fill="#C1C1C1"/>
<path d="M259.889 320.066H250.602V329.217H259.889V320.066Z" fill="#C1C1C1"/>
<path d="M259.889 310.924H250.602V320.065H259.889V310.924Z" fill="#C1C1C1"/>
<path d="M259.889 301.775H250.602V310.926H259.889V301.775Z" fill="#C1C1C1"/>
<path d="M259.889 292.633H250.602V301.774H259.889V292.633Z" fill="#C1C1C1"/>
<path d="M259.889 283.492H250.602V292.633H259.889V283.492Z" fill="white"/>
<path d="M259.889 274.342H250.602V283.492H259.889V274.342Z" fill="white"/>
<path d="M259.889 265.201H250.602V274.342H259.889V265.201Z" fill="white"/>
<path d="M259.889 256.059H250.602V265.2H259.889V256.059Z" fill="white"/>
<path d="M259.889 246.908H250.602V256.059H259.889V246.908Z" fill="white"/>
<path d="M259.889 237.766H250.602V246.907H259.889V237.766Z" fill="white"/>
<path d="M259.889 228.615H250.602V237.766H259.889V228.615Z" fill="white"/>
<path d="M259.889 219.475H250.602V228.616H259.889V219.475Z" fill="white"/>
<path d="M259.889 210.334H250.602V219.475H259.889V210.334Z" fill="white"/>
<path d="M259.889 201.184H250.602V210.334H259.889V201.184Z" fill="white"/>
<path d="M259.889 192.041H250.602V201.182H259.889V192.041Z" fill="white"/>
<path d="M259.889 182.891H250.602V192.041H259.889V182.891Z" fill="white"/>
<path d="M259.889 173.75H250.602V182.891H259.889V173.75Z" fill="white"/>
<path d="M259.889 164.609H250.602V173.751H259.889V164.609Z" fill="#C1C1C1"/>
<path d="M259.889 155.457H250.602V164.608H259.889V155.457Z" fill="#C1C1C1"/>
<path d="M259.889 146.316H250.602V155.458H259.889V146.316Z" fill="#C1C1C1"/>
<path d="M259.889 137.166H250.602V146.317H259.889V137.166Z" fill="#C1C1C1"/>
<path d="M259.889 128.023H250.602V137.165H259.889V128.023Z" fill="#C1C1C1"/>
<path d="M250.602 356.65H241.324V365.792H250.602V356.65Z" fill="white"/>
<path d="M250.602 347.5H241.324V356.651H250.602V347.5Z" fill="white"/>
<path d="M250.602 338.357H241.324V347.499H250.602V338.357Z" fill="white"/>
<path d="M250.602 329.217H241.324V338.358H250.602V329.217Z" fill="white"/>
<path d="M250.602 320.066H241.324V329.217H250.602V320.066Z" fill="white"/>
<path d="M250.602 310.924H241.324V320.065H250.602V310.924Z" fill="white"/>
<path d="M250.602 301.775H241.324V310.926H250.602V301.775Z" fill="white"/>
<path d="M250.602 292.633H241.324V301.774H250.602V292.633Z" fill="#C1C1C1"/>
<path d="M250.602 283.492H241.324V292.633H250.602V283.492Z" fill="#C1C1C1"/>
<path d="M250.602 274.342H241.324V283.492H250.602V274.342Z" fill="#C1C1C1"/>
<path d="M250.602 265.201H241.324V274.342H250.602V265.201Z" fill="#C1C1C1"/>
<path d="M250.602 256.059H241.324V265.2H250.602V256.059Z" fill="#C1C1C1"/>
<path d="M250.602 246.908H241.324V256.059H250.602V246.908Z" fill="#C1C1C1"/>
<path d="M250.602 237.766H241.324V246.907H250.602V237.766Z" fill="#C1C1C1"/>
<path d="M250.602 228.615H241.324V237.766H250.602V228.615Z" fill="#C1C1C1"/>
<path d="M250.602 219.475H241.324V228.616H250.602V219.475Z" fill="#C1C1C1"/>
<path d="M250.602 210.334H241.324V219.475H250.602V210.334Z" fill="white"/>
<path d="M250.602 201.184H241.324V210.334H250.602V201.184Z" fill="white"/>
<path d="M250.602 192.041H241.324V201.182H250.602V192.041Z" fill="white"/>
<path d="M250.602 182.891H241.324V192.041H250.602V182.891Z" fill="white"/>
<path d="M250.602 173.75H241.324V182.891H250.602V173.75Z" fill="white"/>
<path d="M250.602 164.609H241.324V173.751H250.602V164.609Z" fill="#C1C1C1"/>
<path d="M250.602 155.457H241.324V164.608H250.602V155.457Z" fill="#C1C1C1"/>
<path d="M250.602 146.316H241.324V155.458H250.602V146.316Z" fill="#C1C1C1"/>
<path d="M250.602 137.166H241.324V146.317H250.602V137.166Z" fill="#C1C1C1"/>
<path d="M250.602 128.023H241.324V137.165H250.602V128.023Z" fill="#C1C1C1"/>
<path d="M250.602 118.883H241.324V128.024H250.602V118.883Z" fill="#C1C1C1"/>
<path d="M241.324 374.941H232.037V384.083H241.324V374.941Z" fill="white"/>
<path d="M241.324 365.791H232.037V374.942H241.324V365.791Z" fill="white"/>
<path d="M241.324 356.65H232.037V365.792H241.324V356.65Z" fill="white"/>
<path d="M241.324 347.5H232.037V356.651H241.324V347.5Z" fill="white"/>
<path d="M241.324 338.357H232.037V347.499H241.324V338.357Z" fill="white"/>
<path d="M241.324 329.217H232.037V338.358H241.324V329.217Z" fill="white"/>
<path d="M241.324 320.066H232.037V329.217H241.324V320.066Z" fill="white"/>
<path d="M241.324 310.924H232.037V320.065H241.324V310.924Z" fill="white"/>
<path d="M241.324 301.775H232.037V310.926H241.324V301.775Z" fill="white"/>
<path d="M241.324 292.633H232.037V301.774H241.324V292.633Z" fill="white"/>
<path d="M241.324 283.492H232.037V292.633H241.324V283.492Z" fill="white"/>
<path d="M241.324 274.342H232.037V283.492H241.324V274.342Z" fill="white"/>
<path d="M241.324 265.201H232.037V274.342H241.324V265.201Z" fill="white"/>
<path d="M241.324 256.059H232.037V265.2H241.324V256.059Z" fill="white"/>
<path d="M241.324 246.908H232.037V256.059H241.324V246.908Z" fill="white"/>
<path d="M241.324 237.766H232.037V246.907H241.324V237.766Z" fill="white"/>
<path d="M241.324 228.615H232.037V237.766H241.324V228.615Z" fill="#C1C1C1"/>
<path d="M241.324 219.475H232.037V228.616H241.324V219.475Z" fill="#C1C1C1"/>
<path d="M241.324 210.334H232.037V219.475H241.324V210.334Z" fill="#C1C1C1"/>
<path d="M241.324 201.184H232.037V210.334H241.324V201.184Z" fill="#C1C1C1"/>
<path d="M241.324 192.041H232.037V201.182H241.324V192.041Z" fill="#C1C1C1"/>
<path d="M241.324 182.891H232.037V192.041H241.324V182.891Z" fill="#C1C1C1"/>
<path d="M241.324 173.75H232.037V182.891H241.324V173.75Z" fill="#C1C1C1"/>
<path d="M241.324 164.609H232.037V173.751H241.324V164.609Z" fill="#C1C1C1"/>
<path d="M241.324 155.457H232.037V164.608H241.324V155.457Z" fill="#C1C1C1"/>
<path d="M241.324 146.316H232.037V155.458H241.324V146.316Z" fill="#C1C1C1"/>
<path d="M241.324 137.166H232.037V146.317H241.324V137.166Z" fill="#C1C1C1"/>
<path d="M241.324 128.023H232.037V137.165H241.324V128.023Z" fill="#C1C1C1"/>
<path d="M241.324 118.883H232.037V128.024H241.324V118.883Z" fill="#C1C1C1"/>
<path d="M232.037 374.941H222.76V384.083H232.037V374.941Z" fill="white"/>
<path d="M232.037 365.791H222.76V374.942H232.037V365.791Z" fill="white"/>
<path d="M232.037 356.65H222.76V365.792H232.037V356.65Z" fill="white"/>
<path d="M232.037 347.5H222.76V356.651H232.037V347.5Z" fill="white"/>
<path d="M232.037 338.357H222.76V347.499H232.037V338.357Z" fill="white"/>
<path d="M232.037 329.217H222.76V338.358H232.037V329.217Z" fill="white"/>
<path d="M232.037 320.066H222.76V329.217H232.037V320.066Z" fill="white"/>
<path d="M232.037 310.924H222.76V320.065H232.037V310.924Z" fill="white"/>
<path d="M232.037 301.775H222.76V310.926H232.037V301.775Z" fill="white"/>
<path d="M232.037 292.633H222.76V301.774H232.037V292.633Z" fill="white"/>
<path d="M232.037 283.492H222.76V292.633H232.037V283.492Z" fill="white"/>
<path d="M232.037 274.342H222.76V283.492H232.037V274.342Z" fill="white"/>
<path d="M232.037 265.201H222.76V274.342H232.037V265.201Z" fill="white"/>
<path d="M232.037 256.059H222.76V265.2H232.037V256.059Z" fill="white"/>
<path d="M232.037 246.908H222.76V256.059H232.037V246.908Z" fill="white"/>
<path d="M232.037 237.766H222.76V246.907H232.037V237.766Z" fill="white"/>
<path d="M232.037 228.615H222.76V237.766H232.037V228.615Z" fill="white"/>
<path d="M232.037 219.475H222.76V228.616H232.037V219.475Z" fill="white"/>
<path d="M232.037 210.334H222.76V219.475H232.037V210.334Z" fill="white"/>
<path d="M232.037 201.184H222.76V210.334H232.037V201.184Z" fill="white"/>
<path d="M232.037 192.041H222.76V201.182H232.037V192.041Z" fill="white"/>
<path d="M232.037 182.891H222.76V192.041H232.037V182.891Z" fill="white"/>
<path d="M232.037 173.75H222.76V182.891H232.037V173.75Z" fill="white"/>
<path d="M232.037 164.609H222.76V173.751H232.037V164.609Z" fill="white"/>
<path d="M232.037 155.457H222.76V164.608H232.037V155.457Z" fill="white"/>
<path d="M232.037 146.316H222.76V155.458H232.037V146.316Z" fill="#C1C1C1"/>
<path d="M232.037 137.166H222.76V146.317H232.037V137.166Z" fill="#C1C1C1"/>
<path d="M232.037 128.023H222.76V137.165H232.037V128.023Z" fill="#C1C1C1"/>
<path d="M232.037 118.883H222.76V128.024H232.037V118.883Z" fill="#C1C1C1"/>
<path d="M222.759 374.941H213.472V384.083H222.759V374.941Z" fill="white"/>
<path d="M222.759 365.791H213.472V374.942H222.759V365.791Z" fill="white"/>
<path d="M222.759 356.65H213.472V365.792H222.759V356.65Z" fill="white"/>
<path d="M222.759 347.5H213.472V356.651H222.759V347.5Z" fill="white"/>
<path d="M222.759 338.357H213.472V347.499H222.759V338.357Z" fill="white"/>
<path d="M222.759 329.217H213.472V338.358H222.759V329.217Z" fill="white"/>
<path d="M222.759 320.066H213.472V329.217H222.759V320.066Z" fill="white"/>
<path d="M222.759 310.924H213.472V320.065H222.759V310.924Z" fill="white"/>
<path d="M222.759 301.775H213.472V310.926H222.759V301.775Z" fill="white"/>
<path d="M222.759 292.633H213.472V301.774H222.759V292.633Z" fill="white"/>
<path d="M222.759 283.492H213.472V292.633H222.759V283.492Z" fill="white"/>
<path d="M222.759 274.342H213.472V283.492H222.759V274.342Z" fill="white"/>
<path d="M222.759 265.201H213.472V274.342H222.759V265.201Z" fill="white"/>
<path d="M222.759 256.059H213.472V265.2H222.759V256.059Z" fill="white"/>
<path d="M222.759 246.908H213.472V256.059H222.759V246.908Z" fill="white"/>
<path d="M222.759 237.766H213.472V246.907H222.759V237.766Z" fill="white"/>
<path d="M222.759 228.615H213.472V237.766H222.759V228.615Z" fill="white"/>
<path d="M222.759 219.475H213.472V228.616H222.759V219.475Z" fill="white"/>
<path d="M222.759 210.334H213.472V219.475H222.759V210.334Z" fill="white"/>
<path d="M222.759 201.184H213.472V210.334H222.759V201.184Z" fill="white"/>
<path d="M222.759 192.041H213.472V201.182H222.759V192.041Z" fill="white"/>
<path d="M222.759 182.891H213.472V192.041H222.759V182.891Z" fill="white"/>
<path d="M222.759 173.75H213.472V182.891H222.759V173.75Z" fill="white"/>
<path d="M222.759 164.609H213.472V173.751H222.759V164.609Z" fill="white"/>
<path d="M222.759 155.457H213.472V164.608H222.759V155.457Z" fill="white"/>
<path d="M222.759 146.316H213.472V155.458H222.759V146.316Z" fill="white"/>
<path d="M222.759 137.166H213.472V146.317H222.759V137.166Z" fill="white"/>
<path d="M222.759 128.023H213.472V137.165H222.759V128.023Z" fill="white"/>
<path d="M222.759 118.883H213.472V128.024H222.759V118.883Z" fill="#C1C1C1"/>
<path d="M222.759 36.5742H213.472V45.7155H222.759V36.5742Z" fill="#C1C1C1"/>
<path d="M213.473 365.791H204.195V374.942H213.473V365.791Z" fill="white"/>
<path d="M213.473 356.65H204.195V365.792H213.473V356.65Z" fill="white"/>
<path d="M213.473 347.5H204.195V356.651H213.473V347.5Z" fill="white"/>
<path d="M213.473 338.357H204.195V347.499H213.473V338.357Z" fill="white"/>
<path d="M213.473 329.217H204.195V338.358H213.473V329.217Z" fill="white"/>
<path d="M213.473 320.066H204.195V329.217H213.473V320.066Z" fill="white"/>
<path d="M213.473 310.924H204.195V320.065H213.473V310.924Z" fill="white"/>
<path d="M213.473 301.775H204.195V310.926H213.473V301.775Z" fill="white"/>
<path d="M213.473 292.633H204.195V301.774H213.473V292.633Z" fill="white"/>
<path d="M213.473 283.492H204.195V292.633H213.473V283.492Z" fill="white"/>
<path d="M213.473 274.342H204.195V283.492H213.473V274.342Z" fill="white"/>
<path d="M213.473 265.201H204.195V274.342H213.473V265.201Z" fill="white"/>
<path d="M213.473 256.059H204.195V265.2H213.473V256.059Z" fill="white"/>
<path d="M213.473 246.908H204.195V256.059H213.473V246.908Z" fill="white"/>
<path d="M213.473 237.766H204.195V246.907H213.473V237.766Z" fill="white"/>
<path d="M213.473 228.615H204.195V237.766H213.473V228.615Z" fill="white"/>
<path d="M213.473 219.475H204.195V228.616H213.473V219.475Z" fill="white"/>
<path d="M213.473 210.334H204.195V219.475H213.473V210.334Z" fill="white"/>
<path d="M213.473 201.184H204.195V210.334H213.473V201.184Z" fill="white"/>
<path d="M213.473 192.041H204.195V201.182H213.473V192.041Z" fill="white"/>
<path d="M213.473 182.891H204.195V192.041H213.473V182.891Z" fill="white"/>
<path d="M213.473 173.75H204.195V182.891H213.473V173.75Z" fill="white"/>
<path d="M213.473 164.609H204.195V173.751H213.473V164.609Z" fill="white"/>
<path d="M213.473 155.457H204.195V164.608H213.473V155.457Z" fill="white"/>
<path d="M213.473 146.316H204.195V155.458H213.473V146.316Z" fill="white"/>
<path d="M213.473 137.166H204.195V146.317H213.473V137.166Z" fill="white"/>
<path d="M213.473 128.023H204.195V137.165H213.473V128.023Z" fill="white"/>
<path d="M213.473 118.883H204.195V128.024H213.473V118.883Z" fill="#C1C1C1"/>
<path d="M213.473 91.4414H204.195V100.592H213.473V91.4414Z" fill="#C1C1C1"/>
<path d="M213.473 82.2988H204.195V91.4401H213.473V82.2988Z" fill="#C1C1C1"/>
<path d="M213.473 73.1582H204.195V82.2995H213.473V73.1582Z" fill="white"/>
<path d="M213.473 64.0078H204.195V73.1584H213.473V64.0078Z" fill="white"/>
<path d="M213.473 54.8652H204.195V64.0065H213.473V54.8652Z" fill="white"/>
<path d="M213.473 45.7168H204.195V54.8674H213.473V45.7168Z" fill="white"/>
<path d="M213.473 36.5742H204.195V45.7155H213.473V36.5742Z" fill="#C1C1C1"/>
<path d="M213.473 27.4316H204.195V36.5729H213.473V27.4316Z" fill="white"/>
<path d="M213.473 18.2832H204.195V27.4338H213.473V18.2832Z" fill="white"/>
<path d="M204.195 374.941H194.927V384.083H204.195V374.941Z" fill="white"/>
<path d="M204.195 365.791H194.927V374.942H204.195V365.791Z" fill="white"/>
<path d="M204.195 356.65H194.927V365.792H204.195V356.65Z" fill="white"/>
<path d="M204.195 347.5H194.927V356.651H204.195V347.5Z" fill="white"/>
<path d="M204.195 338.357H194.927V347.499H204.195V338.357Z" fill="white"/>
<path d="M204.195 329.217H194.927V338.358H204.195V329.217Z" fill="white"/>
<path d="M204.195 320.066H194.927V329.217H204.195V320.066Z" fill="white"/>
<path d="M204.195 310.924H194.927V320.065H204.195V310.924Z" fill="white"/>
<path d="M204.195 301.775H194.927V310.926H204.195V301.775Z" fill="white"/>
<path d="M204.195 292.633H194.927V301.774H204.195V292.633Z" fill="white"/>
<path d="M204.195 283.492H194.927V292.633H204.195V283.492Z" fill="white"/>
<path d="M204.195 274.342H194.927V283.492H204.195V274.342Z" fill="white"/>
<path d="M204.195 265.201H194.927V274.342H204.195V265.201Z" fill="white"/>
<path d="M204.195 256.059H194.927V265.2H204.195V256.059Z" fill="white"/>
<path d="M204.195 246.908H194.927V256.059H204.195V246.908Z" fill="white"/>
<path d="M204.195 237.766H194.927V246.907H204.195V237.766Z" fill="white"/>
<path d="M204.195 228.615H194.927V237.766H204.195V228.615Z" fill="white"/>
<path d="M204.195 219.475H194.927V228.616H204.195V219.475Z" fill="white"/>
<path d="M204.195 210.334H194.927V219.475H204.195V210.334Z" fill="white"/>
<path d="M204.195 201.184H194.927V210.334H204.195V201.184Z" fill="white"/>
<path d="M204.195 192.041H194.927V201.182H204.195V192.041Z" fill="white"/>
<path d="M204.195 182.891H194.927V192.041H204.195V182.891Z" fill="white"/>
<path d="M204.195 173.75H194.927V182.891H204.195V173.75Z" fill="white"/>
<path d="M204.195 164.609H194.927V173.751H204.195V164.609Z" fill="white"/>
<path d="M204.195 155.457H194.927V164.608H204.195V155.457Z" fill="white"/>
<path d="M204.195 146.316H194.927V155.458H204.195V146.316Z" fill="white"/>
<path d="M204.195 137.166H194.927V146.317H204.195V137.166Z" fill="white"/>
<path d="M204.195 128.023H194.927V137.165H204.195V128.023Z" fill="#C1C1C1"/>
<path d="M204.195 118.883H194.927V128.024H204.195V118.883Z" fill="#C1C1C1"/>
<path d="M204.195 109.734H194.927V118.885H204.195V109.734Z" fill="#C1C1C1"/>
<path d="M204.195 100.592H194.927V109.733H204.195V100.592Z" fill="#C1C1C1"/>
<path d="M204.195 91.4414H194.927V100.592H204.195V91.4414Z" fill="#C1C1C1"/>
<path d="M204.195 82.2988H194.927V91.4401H204.195V82.2988Z" fill="white"/>
<path d="M204.195 73.1582H194.927V82.2995H204.195V73.1582Z" fill="white"/>
<path d="M204.195 64.0078H194.927V73.1584H204.195V64.0078Z" fill="white"/>
<path d="M204.195 54.8652H194.927V64.0065H204.195V54.8652Z" fill="white"/>
<path d="M204.195 45.7168H194.927V54.8674H204.195V45.7168Z" fill="white"/>
<path d="M204.195 36.5742H194.927V45.7155H204.195V36.5742Z" fill="#C1C1C1"/>
<path d="M204.195 27.4316H194.927V36.5729H204.195V27.4316Z" fill="white"/>
<path d="M204.195 18.2832H194.927V27.4338H204.195V18.2832Z" fill="white"/>
<path d="M204.195 9.14062H194.927V18.2819H204.195V9.14062Z" fill="white"/>
<path d="M194.927 374.941H185.63V384.083H194.927V374.941Z" fill="white"/>
<path d="M194.927 365.791H185.63V374.942H194.927V365.791Z" fill="white"/>
<path d="M194.927 356.65H185.63V365.792H194.927V356.65Z" fill="white"/>
<path d="M194.927 347.5H185.63V356.651H194.927V347.5Z" fill="white"/>
<path d="M194.927 338.357H185.63V347.499H194.927V338.357Z" fill="white"/>
<path d="M194.927 329.217H185.63V338.358H194.927V329.217Z" fill="white"/>
<path d="M194.927 320.066H185.63V329.217H194.927V320.066Z" fill="white"/>
<path d="M194.927 310.924H185.63V320.065H194.927V310.924Z" fill="white"/>
<path d="M194.927 301.775H185.63V310.926H194.927V301.775Z" fill="white"/>
<path d="M194.927 292.633H185.63V301.774H194.927V292.633Z" fill="white"/>
<path d="M194.927 283.492H185.63V292.633H194.927V283.492Z" fill="white"/>
<path d="M194.927 274.342H185.63V283.492H194.927V274.342Z" fill="white"/>
<path d="M194.927 265.201H185.63V274.342H194.927V265.201Z" fill="white"/>
<path d="M194.927 256.059H185.63V265.2H194.927V256.059Z" fill="white"/>
<path d="M194.927 246.908H185.63V256.059H194.927V246.908Z" fill="white"/>
<path d="M194.927 237.766H185.63V246.907H194.927V237.766Z" fill="white"/>
<path d="M194.927 228.615H185.63V237.766H194.927V228.615Z" fill="white"/>
<path d="M194.927 219.475H185.63V228.616H194.927V219.475Z" fill="white"/>
<path d="M194.927 210.334H185.63V219.475H194.927V210.334Z" fill="white"/>
<path d="M194.927 201.184H185.63V210.334H194.927V201.184Z" fill="white"/>
<path d="M194.927 192.041H185.63V201.182H194.927V192.041Z" fill="white"/>
<path d="M194.927 182.891H185.63V192.041H194.927V182.891Z" fill="white"/>
<path d="M194.927 173.75H185.63V182.891H194.927V173.75Z" fill="white"/>
<path d="M194.927 164.609H185.63V173.751H194.927V164.609Z" fill="white"/>
<path d="M194.927 155.457H185.63V164.608H194.927V155.457Z" fill="white"/>
<path d="M194.927 146.316H185.63V155.458H194.927V146.316Z" fill="white"/>
<path d="M194.927 137.166H185.63V146.317H194.927V137.166Z" fill="white"/>
<path d="M194.927 128.023H185.63V137.165H194.927V128.023Z" fill="#C1C1C1"/>
<path d="M194.927 118.883H185.63V128.024H194.927V118.883Z" fill="#C1C1C1"/>
<path d="M194.927 109.734H185.63V118.885H194.927V109.734Z" fill="#C1C1C1"/>
<path d="M194.927 100.592H185.63V109.733H194.927V100.592Z" fill="#C1C1C1"/>
<path d="M194.927 91.4414H185.63V100.592H194.927V91.4414Z" fill="white"/>
<path d="M194.927 82.2988H185.63V91.4401H194.927V82.2988Z" fill="white"/>
<path d="M194.927 73.1582H185.63V82.2995H194.927V73.1582Z" fill="white"/>
<path d="M194.927 64.0078H185.63V73.1584H194.927V64.0078Z" fill="white"/>
<path d="M194.927 54.8652H185.63V64.0065H194.927V54.8652Z" fill="white"/>
<path d="M194.927 45.7168H185.63V54.8674H194.927V45.7168Z" fill="white"/>
<path d="M194.927 36.5742H185.63V45.7155H194.927V36.5742Z" fill="#C1C1C1"/>
<path d="M194.927 27.4316H185.63V36.5729H194.927V27.4316Z" fill="white"/>
<path d="M194.927 18.2832H185.63V27.4338H194.927V18.2832Z" fill="white"/>
<path d="M194.927 9.14062H185.63V18.2819H194.927V9.14062Z" fill="white"/>
<path d="M194.927 0H185.63V9.14128H194.927V0Z" fill="white"/>
<path d="M185.63 374.941H176.353V384.083H185.63V374.941Z" fill="#C1C1C1"/>
<path d="M185.63 365.791H176.353V374.942H185.63V365.791Z" fill="#C1C1C1"/>
<path d="M185.63 356.65H176.353V365.792H185.63V356.65Z" fill="#C1C1C1"/>
<path d="M185.63 347.5H176.353V356.651H185.63V347.5Z" fill="#C1C1C1"/>
<path d="M185.63 338.357H176.353V347.499H185.63V338.357Z" fill="white"/>
<path d="M185.63 329.217H176.353V338.358H185.63V329.217Z" fill="white"/>
<path d="M185.63 320.066H176.353V329.217H185.63V320.066Z" fill="white"/>
<path d="M185.63 310.924H176.353V320.065H185.63V310.924Z" fill="white"/>
<path d="M185.63 301.775H176.353V310.926H185.63V301.775Z" fill="white"/>
<path d="M185.63 292.633H176.353V301.774H185.63V292.633Z" fill="white"/>
<path d="M185.63 283.492H176.353V292.633H185.63V283.492Z" fill="white"/>
<path d="M185.63 274.342H176.353V283.492H185.63V274.342Z" fill="white"/>
<path d="M185.63 265.201H176.353V274.342H185.63V265.201Z" fill="white"/>
<path d="M185.63 256.059H176.353V265.2H185.63V256.059Z" fill="white"/>
<path d="M185.63 246.908H176.353V256.059H185.63V246.908Z" fill="white"/>
<path d="M185.63 237.766H176.353V246.907H185.63V237.766Z" fill="white"/>
<path d="M185.63 228.615H176.353V237.766H185.63V228.615Z" fill="white"/>
<path d="M185.63 219.475H176.353V228.616H185.63V219.475Z" fill="white"/>
<path d="M185.63 210.334H176.353V219.475H185.63V210.334Z" fill="white"/>
<path d="M185.63 201.184H176.353V210.334H185.63V201.184Z" fill="white"/>
<path d="M185.63 192.041H176.353V201.182H185.63V192.041Z" fill="white"/>
<path d="M185.63 182.891H176.353V192.041H185.63V182.891Z" fill="white"/>
<path d="M185.63 173.75H176.353V182.891H185.63V173.75Z" fill="white"/>
<path d="M185.63 164.609H176.353V173.751H185.63V164.609Z" fill="white"/>
<path d="M185.63 155.457H176.353V164.608H185.63V155.457Z" fill="white"/>
<path d="M185.63 146.316H176.353V155.458H185.63V146.316Z" fill="white"/>
<path d="M185.63 137.166H176.353V146.317H185.63V137.166Z" fill="#C1C1C1"/>
<path d="M185.63 128.023H176.353V137.165H185.63V128.023Z" fill="#C1C1C1"/>
<path d="M185.63 118.883H176.353V128.024H185.63V118.883Z" fill="#C1C1C1"/>
<path d="M171.713 54.8652H162.436V64.0065H171.713V54.8652Z" fill="#C1C1C1"/>
<path d="M185.63 109.734H176.353V118.885H185.63V109.734Z" fill="#C1C1C1"/>
<path d="M185.63 100.592H176.353V109.733H185.63V100.592Z" fill="#C1C1C1"/>
<path d="M185.63 91.4414H176.353V100.592H185.63V91.4414Z" fill="white"/>
<path d="M185.63 82.2988H176.353V91.4401H185.63V82.2988Z" fill="white"/>
<path d="M185.63 73.1582H176.353V82.2995H185.63V73.1582Z" fill="white"/>
<path d="M185.63 64.0078H176.353V73.1584H185.63V64.0078Z" fill="white"/>
<path d="M185.63 54.8652H176.353V64.0065H185.63V54.8652Z" fill="white"/>
<path d="M185.63 45.7168H176.353V54.8674H185.63V45.7168Z" fill="white"/>
<path d="M185.63 36.5742H176.353V45.7155H185.63V36.5742Z" fill="#C1C1C1"/>
<path d="M185.63 27.4316H176.353V36.5729H185.63V27.4316Z" fill="white"/>
<path d="M185.63 18.2832H176.353V27.4338H185.63V18.2832Z" fill="white"/>
<path d="M185.63 9.14062H176.353V18.2819H185.63V9.14062Z" fill="white"/>
<path d="M185.63 0H176.353V9.14128H185.63V0Z" fill="white"/>
<path d="M176.352 374.941H167.074V384.083H176.352V374.941Z" fill="#C1C1C1"/>
<path d="M176.352 365.791H167.074V374.942H176.352V365.791Z" fill="#C1C1C1"/>
<path d="M176.352 356.65H167.074V365.792H176.352V356.65Z" fill="#C1C1C1"/>
<path d="M176.352 347.5H167.074V356.651H176.352V347.5Z" fill="#C1C1C1"/>
<path d="M176.352 338.357H167.074V347.499H176.352V338.357Z" fill="#C1C1C1"/>
<path d="M176.352 329.217H167.074V338.358H176.352V329.217Z" fill="#C1C1C1"/>
<path d="M176.352 320.066H167.074V329.217H176.352V320.066Z" fill="white"/>
<path d="M176.352 310.924H167.074V320.065H176.352V310.924Z" fill="white"/>
<path d="M176.352 301.775H167.074V310.926H176.352V301.775Z" fill="white"/>
<path d="M176.352 292.633H167.074V301.774H176.352V292.633Z" fill="white"/>
<path d="M176.352 283.492H167.074V292.633H176.352V283.492Z" fill="white"/>
<path d="M176.352 274.342H167.074V283.492H176.352V274.342Z" fill="white"/>
<path d="M176.352 265.201H167.074V274.342H176.352V265.201Z" fill="white"/>
<path d="M176.352 256.059H167.074V265.2H176.352V256.059Z" fill="white"/>
<path d="M176.352 246.908H167.074V256.059H176.352V246.908Z" fill="white"/>
<path d="M176.352 237.766H167.074V246.907H176.352V237.766Z" fill="white"/>
<path d="M176.352 228.615H167.074V237.766H176.352V228.615Z" fill="white"/>
<path d="M176.352 219.475H167.074V228.616H176.352V219.475Z" fill="white"/>
<path d="M176.352 210.334H167.074V219.475H176.352V210.334Z" fill="white"/>
<path d="M176.352 201.184H167.074V210.334H176.352V201.184Z" fill="white"/>
<path d="M176.352 192.041H167.074V201.182H176.352V192.041Z" fill="white"/>
<path d="M176.352 182.891H167.074V192.041H176.352V182.891Z" fill="white"/>
<path d="M176.352 173.75H167.074V182.891H176.352V173.75Z" fill="white"/>
<path d="M176.352 164.609H167.074V173.751H176.352V164.609Z" fill="white"/>
<path d="M176.352 155.457H167.074V164.608H176.352V155.457Z" fill="white"/>
<path d="M176.352 146.316H167.074V155.458H176.352V146.316Z" fill="white"/>
<path d="M176.352 137.166H167.074V146.317H176.352V137.166Z" fill="white"/>
<path d="M176.352 128.023H167.074V137.165H176.352V128.023Z" fill="#C1C1C1"/>
<path d="M176.352 118.883H167.074V128.024H176.352V118.883Z" fill="#C1C1C1"/>
<path d="M176.352 109.734H167.074V118.885H176.352V109.734Z" fill="#C1C1C1"/>
<path d="M176.352 100.592H167.074V109.733H176.352V100.592Z" fill="#C1C1C1"/>
<path d="M176.352 91.4414H167.074V100.592H176.352V91.4414Z" fill="white"/>
<path d="M176.352 82.2988H167.074V91.4401H176.352V82.2988Z" fill="white"/>
<path d="M176.352 73.1582H167.074V82.2995H176.352V73.1582Z" fill="white"/>
<path d="M176.352 64.0078H167.074V73.1584H176.352V64.0078Z" fill="white"/>
<path d="M176.352 54.8652H167.074V64.0065H176.352V54.8652Z" fill="white"/>
<path d="M176.352 45.7168H167.074V54.8674H176.352V45.7168Z" fill="white"/>
<path d="M176.352 36.5742H167.074V45.7155H176.352V36.5742Z" fill="#C1C1C1"/>
<path d="M176.352 27.4316H167.074V36.5729H176.352V27.4316Z" fill="white"/>
<path d="M176.352 18.2832H167.074V27.4338H176.352V18.2832Z" fill="white"/>
<path d="M176.352 9.14062H167.074V18.2819H176.352V9.14062Z" fill="white"/>
<path d="M176.352 0H167.074V9.14128H176.352V0Z" fill="white"/>
<path d="M167.074 374.941H157.787V384.083H167.074V374.941Z" fill="#C1C1C1"/>
<path d="M167.074 365.791H157.787V374.942H167.074V365.791Z" fill="#C1C1C1"/>
<path d="M167.074 356.65H157.787V365.792H167.074V356.65Z" fill="#C1C1C1"/>
<path d="M167.074 347.5H157.787V356.651H167.074V347.5Z" fill="#C1C1C1"/>
<path d="M167.074 338.357H157.787V347.499H167.074V338.357Z" fill="#C1C1C1"/>
<path d="M167.074 329.217H157.787V338.358H167.074V329.217Z" fill="#C1C1C1"/>
<path d="M167.074 320.066H157.787V329.217H167.074V320.066Z" fill="#C1C1C1"/>
<path d="M167.074 310.924H157.787V320.065H167.074V310.924Z" fill="white"/>
<path d="M167.074 301.775H157.787V310.926H167.074V301.775Z" fill="white"/>
<path d="M167.074 292.633H157.787V301.774H167.074V292.633Z" fill="white"/>
<path d="M167.074 283.492H157.787V292.633H167.074V283.492Z" fill="white"/>
<path d="M167.074 274.342H157.787V283.492H167.074V274.342Z" fill="white"/>
<path d="M167.074 265.201H157.787V274.342H167.074V265.201Z" fill="white"/>
<path d="M167.074 256.059H157.787V265.2H167.074V256.059Z" fill="white"/>
<path d="M167.074 246.908H157.787V256.059H167.074V246.908Z" fill="white"/>
<path d="M167.074 237.766H157.787V246.907H167.074V237.766Z" fill="white"/>
<path d="M167.074 228.615H157.787V237.766H167.074V228.615Z" fill="white"/>
<path d="M167.074 219.475H157.787V228.616H167.074V219.475Z" fill="white"/>
<path d="M167.074 210.334H157.787V219.475H167.074V210.334Z" fill="white"/>
<path d="M167.074 201.184H157.787V210.334H167.074V201.184Z" fill="white"/>
<path d="M167.074 192.041H157.787V201.182H167.074V192.041Z" fill="white"/>
<path d="M167.074 182.891H157.787V192.041H167.074V182.891Z" fill="white"/>
<path d="M167.074 173.75H157.787V182.891H167.074V173.75Z" fill="white"/>
<path d="M167.074 164.609H157.787V173.751H167.074V164.609Z" fill="white"/>
<path d="M167.074 155.457H157.787V164.608H167.074V155.457Z" fill="white"/>
<path d="M167.074 146.316H157.787V155.458H167.074V146.316Z" fill="white"/>
<path d="M167.074 137.166H157.787V146.317H167.074V137.166Z" fill="white"/>
<path d="M167.074 128.023H157.787V137.165H167.074V128.023Z" fill="#C1C1C1"/>
<path d="M167.074 118.883H157.787V128.024H167.074V118.883Z" fill="#C1C1C1"/>
<path d="M167.074 109.734H157.787V118.885H167.074V109.734Z" fill="#C1C1C1"/>
<path d="M167.074 100.592H157.787V109.733H167.074V100.592Z" fill="#C1C1C1"/>
<path d="M167.074 91.4414H157.787V100.592H167.074V91.4414Z" fill="#C1C1C1"/>
<path d="M167.074 82.2988H157.787V91.4401H167.074V82.2988Z" fill="white"/>
<path d="M167.074 73.1582H157.787V82.2995H167.074V73.1582Z" fill="white"/>
<path d="M167.074 64.0078H157.787V73.1584H167.074V64.0078Z" fill="white"/>
<path d="M167.074 54.8652H157.787V64.0065H167.074V54.8652Z" fill="black"/>
<path d="M204.204 54.8652H194.917V64.0065H204.204V54.8652Z" fill="black"/>
<path d="M167.074 45.7168H157.787V54.8674H167.074V45.7168Z" fill="white"/>
<path d="M167.074 36.5742H157.787V45.7155H167.074V36.5742Z" fill="#C1C1C1"/>
<path d="M167.074 27.4316H157.787V36.5729H167.074V27.4316Z" fill="white"/>
<path d="M167.074 18.2832H157.787V27.4338H167.074V18.2832Z" fill="white"/>
<path d="M167.074 9.14062H157.787V18.2819H167.074V9.14062Z" fill="white"/>
<path d="M157.787 374.941H148.51V384.083H157.787V374.941Z" fill="white"/>
<path d="M157.787 365.791H148.51V374.942H157.787V365.791Z" fill="white"/>
<path d="M157.787 356.65H148.51V365.792H157.787V356.65Z" fill="white"/>
<path d="M157.787 347.5H148.51V356.651H157.787V347.5Z" fill="#C1C1C1"/>
<path d="M157.787 338.357H148.51V347.499H157.787V338.357Z" fill="#C1C1C1"/>
<path d="M157.787 329.217H148.51V338.358H157.787V329.217Z" fill="#C1C1C1"/>
<path d="M157.787 320.066H148.51V329.217H157.787V320.066Z" fill="#C1C1C1"/>
<path d="M157.787 310.924H148.51V320.065H157.787V310.924Z" fill="#C1C1C1"/>
<path d="M157.787 301.775H148.51V310.926H157.787V301.775Z" fill="#C1C1C1"/>
<path d="M157.787 292.633H148.51V301.774H157.787V292.633Z" fill="#C1C1C1"/>
<path d="M157.787 283.492H148.51V292.633H157.787V283.492Z" fill="#C1C1C1"/>
<path d="M157.787 274.342H148.51V283.492H157.787V274.342Z" fill="#C1C1C1"/>
<path d="M139.223 274.342H129.945V283.492H139.223V274.342Z" fill="#C1C1C1"/>
<path d="M139.223 201.184H129.945V210.334H139.223V201.184Z" fill="#C1C1C1"/>
<path d="M139.223 210.334H129.945V219.485H139.223V210.334Z" fill="#C1C1C1"/>
<path d="M139.223 219.475H129.945V228.625H139.223V219.475Z" fill="#C1C1C1"/>
<path d="M139.223 228.615H129.945V237.766H139.223V228.615Z" fill="#C1C1C1"/>
<path d="M139.223 237.766H129.945V246.916H139.223V237.766Z" fill="#C1C1C1"/>
<path d="M139.223 246.908H129.945V256.059H139.223V246.908Z" fill="#C1C1C1"/>
<path d="M139.223 256.059H129.945V265.209H139.223V256.059Z" fill="#C1C1C1"/>
<path d="M139.223 265.189H129.945V274.34H139.223V265.189Z" fill="#C1C1C1"/>
<path d="M157.787 265.201H148.51V274.342H157.787V265.201Z" fill="white"/>
<path d="M157.787 256.059H148.51V265.2H157.787V256.059Z" fill="white"/>
<path d="M157.787 246.908H148.51V256.059H157.787V246.908Z" fill="white"/>
<path d="M157.787 237.766H148.51V246.907H157.787V237.766Z" fill="white"/>
<path d="M157.787 228.615H148.51V237.766H157.787V228.615Z" fill="white"/>
<path d="M157.787 219.475H148.51V228.616H157.787V219.475Z" fill="white"/>
<path d="M157.787 210.334H148.51V219.475H157.787V210.334Z" fill="white"/>
<path d="M157.787 201.184H148.51V210.334H157.787V201.184Z" fill="white"/>
<path d="M157.787 192.041H148.51V201.182H157.787V192.041Z" fill="white"/>
<path d="M157.787 182.891H148.51V192.041H157.787V182.891Z" fill="white"/>
<path d="M157.787 173.75H148.51V182.891H157.787V173.75Z" fill="white"/>
<path d="M157.787 164.609H148.51V173.751H157.787V164.609Z" fill="white"/>
<path d="M157.787 155.457H148.51V164.608H157.787V155.457Z" fill="white"/>
<path d="M157.787 146.316H148.51V155.458H157.787V146.316Z" fill="white"/>
<path d="M157.787 137.166H148.51V146.317H157.787V137.166Z" fill="white"/>
<path d="M157.787 128.023H148.51V137.165H157.787V128.023Z" fill="white"/>
<path d="M157.787 118.883H148.51V128.024H157.787V118.883Z" fill="white"/>
<path d="M157.787 109.734H148.51V118.885H157.787V109.734Z" fill="#C1C1C1"/>
<path d="M157.787 100.592H148.51V109.733H157.787V100.592Z" fill="#606060"/>
<path d="M157.787 91.4414H148.51V100.592H157.787V91.4414Z" fill="#606060"/>
<path d="M157.787 82.2988H148.51V91.4401H157.787V82.2988Z" fill="white"/>
<path d="M157.787 73.1582H148.51V82.2995H157.787V73.1582Z" fill="white"/>
<path d="M157.787 64.0078H148.51V73.1584H157.787V64.0078Z" fill="white"/>
<path d="M157.787 54.8652H148.51V64.0065H157.787V54.8652Z" fill="white"/>
<path d="M157.787 45.7168H148.51V54.8674H157.787V45.7168Z" fill="white"/>
<path d="M157.787 36.5742H148.51V45.7155H157.787V36.5742Z" fill="#C1C1C1"/>
<path d="M157.787 27.4316H148.51V36.5729H157.787V27.4316Z" fill="white"/>
<path d="M157.787 18.2832H148.51V27.4338H157.787V18.2832Z" fill="white"/>
<path d="M148.509 374.941H139.222V384.083H148.509V374.941Z" fill="white"/>
<path d="M148.509 365.791H139.222V374.942H148.509V365.791Z" fill="white"/>
<path d="M148.509 356.65H139.222V365.792H148.509V356.65Z" fill="white"/>
<path d="M148.509 347.5H139.222V356.651H148.509V347.5Z" fill="white"/>
<path d="M148.509 338.357H139.222V347.499H148.509V338.357Z" fill="white"/>
<path d="M148.509 329.217H139.222V338.358H148.509V329.217Z" fill="#C1C1C1"/>
<path d="M148.509 320.066H139.222V329.217H148.509V320.066Z" fill="#C1C1C1"/>
<path d="M148.509 310.924H139.222V320.065H148.509V310.924Z" fill="#C1C1C1"/>
<path d="M148.509 301.775H139.222V310.926H148.509V301.775Z" fill="#C1C1C1"/>
<path d="M148.509 292.633H139.222V301.774H148.509V292.633Z" fill="#C1C1C1"/>
<path d="M148.509 283.492H139.222V292.633H148.509V283.492Z" fill="#C1C1C1"/>
<path d="M148.509 274.342H139.222V283.492H148.509V274.342Z" fill="white"/>
<path d="M148.509 265.201H139.222V274.342H148.509V265.201Z" fill="white"/>
<path d="M148.509 256.059H139.222V265.2H148.509V256.059Z" fill="white"/>
<path d="M148.509 246.908H139.222V256.059H148.509V246.908Z" fill="white"/>
<path d="M148.509 237.766H139.222V246.907H148.509V237.766Z" fill="white"/>
<path d="M148.509 228.615H139.222V237.766H148.509V228.615Z" fill="white"/>
<path d="M148.509 219.475H139.222V228.616H148.509V219.475Z" fill="white"/>
<path d="M148.509 210.334H139.222V219.475H148.509V210.334Z" fill="white"/>
<path d="M148.509 201.184H139.222V210.334H148.509V201.184Z" fill="white"/>
<path d="M148.509 192.041H139.222V201.182H148.509V192.041Z" fill="white"/>
<path d="M148.509 182.891H139.222V192.041H148.509V182.891Z" fill="white"/>
<path d="M148.509 173.75H139.222V182.891H148.509V173.75Z" fill="white"/>
<path d="M148.509 164.609H139.222V173.751H148.509V164.609Z" fill="white"/>
<path d="M148.509 155.457H139.222V164.608H148.509V155.457Z" fill="white"/>
<path d="M148.509 146.316H139.222V155.458H148.509V146.316Z" fill="white"/>
<path d="M148.509 137.166H139.222V146.317H148.509V137.166Z" fill="white"/>
<path d="M148.509 128.023H139.222V137.165H148.509V128.023Z" fill="white"/>
<path d="M148.509 118.883H139.222V128.024H148.509V118.883Z" fill="white"/>
<path d="M148.509 109.734H139.222V118.885H148.509V109.734Z" fill="#C1C1C1"/>
<path d="M148.509 64.0078H139.222V73.1584H148.509V64.0078Z" fill="#C1C1C1"/>
<path d="M148.509 54.8652H139.222V64.0065H148.509V54.8652Z" fill="#C1C1C1"/>
<path d="M148.509 45.7168H139.222V54.8674H148.509V45.7168Z" fill="#C1C1C1"/>
<path d="M148.509 36.5742H139.222V45.7155H148.509V36.5742Z" fill="#C1C1C1"/>
<path d="M139.223 374.941H129.945V384.083H139.223V374.941Z" fill="white"/>
<path d="M139.223 365.791H129.945V374.942H139.223V365.791Z" fill="white"/>
<path d="M139.223 356.65H129.945V365.792H139.223V356.65Z" fill="white"/>
<path d="M139.223 347.5H129.945V356.651H139.223V347.5Z" fill="white"/>
<path d="M139.223 338.357H129.945V347.499H139.223V338.357Z" fill="white"/>
<path d="M139.223 329.217H129.945V338.358H139.223V329.217Z" fill="white"/>
<path d="M139.223 320.066H129.945V329.217H139.223V320.066Z" fill="white"/>
<path d="M139.223 310.924H129.945V320.065H139.223V310.924Z" fill="#C1C1C1"/>
<path d="M139.223 301.775H129.945V310.926H139.223V301.775Z" fill="#C1C1C1"/>
<path d="M139.223 292.633H129.945V301.774H139.223V292.633Z" fill="#C1C1C1"/>
<path d="M139.223 283.492H129.945V292.633H139.223V283.492Z" fill="#C1C1C1"/>
<path d="M139.223 192.041H129.945V201.182H139.223V192.041Z" fill="white"/>
<path d="M139.223 182.891H129.945V192.041H139.223V182.891Z" fill="white"/>
<path d="M139.223 173.75H129.945V182.891H139.223V173.75Z" fill="white"/>
<path d="M139.223 164.609H129.945V173.751H139.223V164.609Z" fill="white"/>
<path d="M139.223 155.457H129.945V164.608H139.223V155.457Z" fill="white"/>
<path d="M139.223 146.316H129.945V155.458H139.223V146.316Z" fill="white"/>
<path d="M139.223 137.166H129.945V146.317H139.223V137.166Z" fill="white"/>
<path d="M139.223 128.023H129.945V137.165H139.223V128.023Z" fill="white"/>
<path d="M139.223 118.883H129.945V128.024H139.223V118.883Z" fill="#C1C1C1"/>
<path d="M139.223 54.8652H129.945V64.0065H139.223V54.8652Z" fill="#C1C1C1"/>
<path d="M139.223 45.7168H129.945V54.8674H139.223V45.7168Z" fill="#C1C1C1"/>
<path d="M129.943 374.941H120.656V384.083H129.943V374.941Z" fill="white"/>
<path d="M129.943 365.791H120.656V374.942H129.943V365.791Z" fill="white"/>
<path d="M129.943 356.65H120.656V365.792H129.943V356.65Z" fill="white"/>
<path d="M129.943 347.5H120.656V356.651H129.943V347.5Z" fill="white"/>
<path d="M129.943 338.357H120.656V347.499H129.943V338.357Z" fill="white"/>
<path d="M129.943 329.217H120.656V338.358H129.943V329.217Z" fill="white"/>
<path d="M129.943 320.066H120.656V329.217H129.943V320.066Z" fill="white"/>
<path d="M129.943 310.924H120.656V320.065H129.943V310.924Z" fill="#C1C1C1"/>
<path d="M129.943 301.775H120.656V310.926H129.943V301.775Z" fill="#C1C1C1"/>
<path d="M129.943 292.633H120.656V301.774H129.943V292.633Z" fill="#C1C1C1"/>
<path d="M129.943 237.766H120.656V246.907H129.943V237.766Z" fill="white"/>
<path d="M129.943 228.615H120.656V237.766H129.943V228.615Z" fill="white"/>
<path d="M129.943 219.475H120.656V228.616H129.943V219.475Z" fill="white"/>
<path d="M129.943 210.334H120.656V219.475H129.943V210.334Z" fill="white"/>
<path d="M129.943 201.184H120.656V210.334H129.943V201.184Z" fill="white"/>
<path d="M129.943 192.041H120.656V201.182H129.943V192.041Z" fill="white"/>
<path d="M129.943 182.891H120.656V192.041H129.943V182.891Z" fill="white"/>
<path d="M129.943 173.75H120.656V182.891H129.943V173.75Z" fill="white"/>
<path d="M129.943 164.609H120.656V173.751H129.943V164.609Z" fill="white"/>
<path d="M129.943 155.457H120.656V164.608H129.943V155.457Z" fill="white"/>
<path d="M129.943 146.316H120.656V155.458H129.943V146.316Z" fill="white"/>
<path d="M129.943 137.166H120.656V146.317H129.943V137.166Z" fill="white"/>
<path d="M129.943 128.023H120.656V137.165H129.943V128.023Z" fill="white"/>
<path d="M129.943 118.883H120.656V128.024H129.943V118.883Z" fill="#C1C1C1"/>
<path d="M120.658 374.941H111.38V384.083H120.658V374.941Z" fill="white"/>
<path d="M120.658 365.791H111.38V374.942H120.658V365.791Z" fill="white"/>
<path d="M120.658 356.65H111.38V365.792H120.658V356.65Z" fill="white"/>
<path d="M120.658 347.5H111.38V356.651H120.658V347.5Z" fill="white"/>
<path d="M120.658 338.357H111.38V347.499H120.658V338.357Z" fill="#C1C1C1"/>
<path d="M120.658 329.217H111.38V338.358H120.658V329.217Z" fill="#C1C1C1"/>
<path d="M120.658 320.066H111.38V329.217H120.658V320.066Z" fill="#C1C1C1"/>
<path d="M120.658 310.924H111.38V320.065H120.658V310.924Z" fill="#C1C1C1"/>
<path d="M120.658 246.908H111.38V256.059H120.658V246.908Z" fill="white"/>
<path d="M120.658 237.766H111.38V246.907H120.658V237.766Z" fill="white"/>
<path d="M120.658 228.615H111.38V237.766H120.658V228.615Z" fill="white"/>
<path d="M120.658 219.475H111.38V228.616H120.658V219.475Z" fill="white"/>
<path d="M120.658 210.334H111.38V219.475H120.658V210.334Z" fill="white"/>
<path d="M120.658 201.184H111.38V210.334H120.658V201.184Z" fill="white"/>
<path d="M120.658 192.041H111.38V201.182H120.658V192.041Z" fill="white"/>
<path d="M120.658 182.891H111.38V192.041H120.658V182.891Z" fill="white"/>
<path d="M120.658 173.75H111.38V182.891H120.658V173.75Z" fill="white"/>
<path d="M120.658 164.609H111.38V173.751H120.658V164.609Z" fill="white"/>
<path d="M120.658 155.457H111.38V164.608H120.658V155.457Z" fill="white"/>
<path d="M120.658 146.316H111.38V155.458H120.658V146.316Z" fill="white"/>
<path d="M120.658 137.166H111.38V146.317H120.658V137.166Z" fill="white"/>
<path d="M120.658 128.023H111.38V137.165H120.658V128.023Z" fill="#C1C1C1"/>
<path d="M111.38 347.5H102.111V356.651H111.38V347.5Z" fill="#C1C1C1"/>
<path d="M111.38 256.059H102.111V265.2H111.38V256.059Z" fill="white"/>
<path d="M111.38 246.908H102.111V256.059H111.38V246.908Z" fill="white"/>
<path d="M111.38 237.766H102.111V246.907H111.38V237.766Z" fill="white"/>
<path d="M111.38 228.615H102.111V237.766H111.38V228.615Z" fill="#C1C1C1"/>
<path d="M111.38 219.475H102.111V228.616H111.38V219.475Z" fill="#C1C1C1"/>
<path d="M111.38 210.334H102.111V219.475H111.38V210.334Z" fill="#C1C1C1"/>
<path d="M111.38 201.184H102.111V210.334H111.38V201.184Z" fill="#C1C1C1"/>
<path d="M111.38 192.041H102.111V201.182H111.38V192.041Z" fill="#C1C1C1"/>
<path d="M111.38 182.891H102.111V192.041H111.38V182.891Z" fill="#C1C1C1"/>
<path d="M111.38 173.75H102.111V182.891H111.38V173.75Z" fill="#C1C1C1"/>
<path d="M111.38 164.609H102.111V173.751H111.38V164.609Z" fill="#C1C1C1"/>
<path d="M111.38 155.457H102.111V164.608H111.38V155.457Z" fill="#C1C1C1"/>
<path d="M111.38 146.316H102.111V155.458H111.38V146.316Z" fill="#C1C1C1"/>
<path d="M111.38 137.166H102.111V146.317H111.38V137.166Z" fill="#C1C1C1"/>
<path d="M102.112 338.357H92.8154V347.499H102.112V338.357Z" fill="#C1C1C1"/>
<path d="M102.112 256.059H92.8154V265.2H102.112V256.059Z" fill="white"/>
<path d="M102.112 246.908H92.8154V256.059H102.112V246.908Z" fill="#C1C1C1"/>
<path d="M102.112 237.766H92.8154V246.907H102.112V237.766Z" fill="#C1C1C1"/>
<path d="M102.112 228.615H92.8154V237.766H102.112V228.615Z" fill="#C1C1C1"/>
<path d="M92.8148 329.217H83.5371V338.358H92.8148V329.217Z" fill="#C1C1C1"/>
<path d="M250.602 448.1H241.324V457.241H250.602V448.1Z" fill="#C1C1C1"/>
<path d="M259.879 457.25H250.602V466.391H259.879V457.25Z" fill="#C1C1C1"/>
<path d="M269.167 466.393H259.89V475.534H269.167V466.393Z" fill="#C1C1C1"/>
<path d="M278.445 475.533H269.167V484.674H278.445V475.533Z" fill="#C1C1C1"/>
<path d="M287.722 484.676H278.444V493.817H287.722V484.676Z" fill="#C1C1C1"/>
<path d="M296.999 493.824H287.722V502.966H296.999V493.824Z" fill="#C1C1C1"/>
<path d="M92.8148 274.342H83.5371V283.492H92.8148V274.342Z" fill="white"/>
<path d="M92.8148 265.201H83.5371V274.342H92.8148V265.201Z" fill="white"/>
<path d="M92.8148 256.059H83.5371V265.2H92.8148V256.059Z" fill="white"/>
<path d="M92.8148 246.908H83.5371V256.059H92.8148V246.908Z" fill="#C1C1C1"/>
<path d="M83.5375 320.066H74.2598V329.217H83.5375V320.066Z" fill="#C1C1C1"/>
<path d="M83.5375 274.342H74.2598V283.492H83.5375V274.342Z" fill="white"/>
<path d="M83.5375 265.201H74.2598V274.342H83.5375V265.201Z" fill="white"/>
<path d="M83.5375 256.059H74.2598V265.2H83.5375V256.059Z" fill="#C1C1C1"/>
<path d="M83.5375 246.908H74.2598V256.059H83.5375V246.908Z" fill="#C1C1C1"/>
<path d="M74.2592 310.924H64.9814V320.065H74.2592V310.924Z" fill="#C1C1C1"/>
<path d="M74.2592 274.342H64.9814V283.492H74.2592V274.342Z" fill="white"/>
<path d="M74.2592 265.201H64.9814V274.342H74.2592V265.201Z" fill="#C1C1C1"/>
<path d="M74.2592 256.059H64.9814V265.2H74.2592V256.059Z" fill="#C1C1C1"/>
<path d="M64.9815 301.775H55.6943V310.926H64.9815V301.775Z" fill="#C1C1C1"/>
<path d="M64.9815 283.492H55.6943V292.633H64.9815V283.492Z" fill="#C1C1C1"/>
<path d="M64.9815 274.342H55.6943V283.492H64.9815V274.342Z" fill="#C1C1C1"/>
<path d="M64.9815 265.201H55.6943V274.342H64.9815V265.201Z" fill="#C1C1C1"/>
<path d="M55.6934 292.633H46.4062V301.774H55.6934V292.633Z" fill="#C1C1C1"/>
<path d="M55.6934 283.492H46.4062V292.633H55.6934V283.492Z" fill="#C1C1C1"/>
<path d="M55.6934 274.342H46.4062V283.492H55.6934V274.342Z" fill="#C1C1C1"/>
<path d="M46.4076 292.633H37.1299V301.774H46.4076V292.633Z" fill="#C1C1C1"/>
<path d="M46.4076 283.492H37.1299V292.633H46.4076V283.492Z" fill="#C1C1C1"/>
<path d="M46.4076 274.342H37.1299V283.492H46.4076V274.342Z" fill="#C1C1C1"/>
<path d="M37.1293 292.633H27.8516V301.774H37.1293V292.633Z" fill="#C1C1C1"/>
<path d="M37.1293 283.492H27.8516V292.633H37.1293V283.492Z" fill="#C1C1C1"/>
<path d="M37.1293 274.342H27.8516V283.492H37.1293V274.342Z" fill="#C1C1C1"/>
<path d="M27.8526 292.633H18.5654V301.774H27.8526V292.633Z" fill="#C1C1C1"/>
<path d="M27.8526 283.492H18.5654V292.633H27.8526V283.492Z" fill="#C1C1C1"/>
<path d="M27.8526 265.201H18.5654V274.342H27.8526V265.201Z" fill="#C1C1C1"/>
<path d="M18.5651 256.059H9.29688V265.2H18.5651V256.059Z" fill="#C1C1C1"/>
<path d="M9.29663 246.908H0V256.059H9.29663V246.908Z" fill="#C1C1C1"/>
<path d="M232.037 438.949H222.76V448.1H232.037V438.949Z" fill="white"/>
<path d="M232.037 448.1H222.76V457.241H232.037V448.1Z" fill="white"/>
<path d="M232.037 475.533H222.76V484.674H232.037V475.533Z" fill="white"/>
<path d="M241.325 438.949H232.038V448.1H241.325V438.949Z" fill="white"/>
<path d="M241.325 429.807H232.038V438.948H241.325V429.807Z" fill="white"/>
<path d="M241.325 420.666H232.038V429.807H241.325V420.666Z" fill="white"/>
<path d="M241.325 411.516H232.038V420.666H241.325V411.516Z" fill="white"/>
<path d="M232.037 457.24H222.76V466.391H232.037V457.24Z" fill="white"/>
<path d="M232.037 466.391H222.76V475.532H232.037V466.391Z" fill="white"/>
<path d="M222.76 484.676H213.473V493.826H222.76V484.676Z" fill="white"/>
<path d="M222.76 475.533H213.473V484.674H222.76V475.533Z" fill="white"/>
<path d="M222.76 493.824H213.473V502.966H222.76V493.824Z" fill="white"/>
<path d="M222.76 466.391H213.473V475.532H222.76V466.391Z" fill="white"/>
<path d="M213.473 521.258H204.195V530.399H213.473V521.258Z" fill="white"/>
<path d="M213.473 530.398H204.195V539.549H213.473V530.398Z" fill="white"/>
<path d="M213.473 512.107H204.195V521.258H213.473V512.107Z" fill="white"/>
<path d="M213.473 502.965H204.195V512.106H213.473V502.965Z" fill="white"/>
<path d="M213.473 493.824H204.195V502.966H213.473V493.824Z" fill="white"/>
<path d="M204.195 548.691H194.927V557.833H204.195V548.691Z" fill="white"/>
<path d="M204.195 521.258H194.927V530.399H204.195V521.258Z" fill="white"/>
<path d="M204.195 530.398H194.927V539.549H204.195V530.398Z" fill="white"/>
<path d="M204.195 512.107H194.927V521.258H204.195V512.107Z" fill="white"/>
<path d="M204.195 539.551H194.927V548.692H204.195V539.551Z" fill="white"/>
<path d="M194.927 594.416H185.63V603.557H194.927V594.416Z" fill="white"/>
<path d="M194.927 548.691H185.63V557.833H194.927V548.691Z" fill="white"/>
<path d="M194.927 539.551H185.63V548.692H194.927V539.551Z" fill="white"/>
<path d="M194.927 557.832H185.63V566.983H194.927V557.832Z" fill="white"/>
<path d="M194.927 585.275H185.63V594.417H194.927V585.275Z" fill="white"/>
<path d="M194.927 576.125H185.63V585.276H194.927V576.125Z" fill="white"/>
<path d="M194.927 566.982H185.63V576.124H194.927V566.982Z" fill="white"/>
<path d="M185.629 594.416H176.352V603.557H185.629V594.416Z" fill="white"/>
<path d="M185.629 585.275H176.352V594.417H185.629V585.275Z" fill="white"/>
<path d="M185.629 576.125H176.352V585.276H185.629V576.125Z" fill="white"/>
<path d="M185.629 566.982H176.352V576.124H185.629V566.982Z" fill="white"/>
<path d="M185.629 557.832H176.352V566.983H185.629V557.832Z" fill="white"/>
<path d="M139.222 621.85H129.944V631H139.222V621.85Z" fill="white"/>
<path d="M129.945 621.85H120.658V631H129.945V621.85Z" fill="white"/>
<path d="M120.658 621.85H111.38V631H120.658V621.85Z" fill="white"/>
<path d="M111.38 621.85H102.111V631H111.38V621.85Z" fill="white"/>
<path d="M241.325 621.85H232.038V631H241.325V621.85Z" fill="white"/>
<path d="M241.325 402.373H232.038V411.514H241.325V402.373Z" fill="white"/>
<path d="M241.325 393.225H232.038V402.375H241.325V393.225Z" fill="white"/>
<path d="M241.325 384.082H232.038V393.223H241.325V384.082Z" fill="white"/>
<path d="M232.037 621.85H222.76V631H232.037V621.85Z" fill="white"/>
<path d="M232.037 429.807H222.76V438.948H232.037V429.807Z" fill="white"/>
<path d="M232.037 420.666H222.76V429.807H232.037V420.666Z" fill="white"/>
<path d="M232.037 411.516H222.76V420.666H232.037V411.516Z" fill="white"/>
<path d="M232.037 402.373H222.76V411.514H232.037V402.373Z" fill="white"/>
<path d="M232.037 393.225H222.76V402.375H232.037V393.225Z" fill="white"/>
<path d="M232.037 384.082H222.76V393.223H232.037V384.082Z" fill="white"/>
<path d="M222.76 621.85H213.473V631H222.76V621.85Z" fill="white"/>
<path d="M222.76 457.24H213.473V466.391H222.76V457.24Z" fill="white"/>
<path d="M222.76 448.1H213.473V457.241H222.76V448.1Z" fill="white"/>
<path d="M222.76 438.949H213.473V448.1H222.76V438.949Z" fill="white"/>
<path d="M222.76 429.807H213.473V438.948H222.76V429.807Z" fill="white"/>
<path d="M222.76 420.666H213.473V429.807H222.76V420.666Z" fill="white"/>
<path d="M222.76 411.516H213.473V420.666H222.76V411.516Z" fill="white"/>
<path d="M222.76 402.373H213.473V411.514H222.76V402.373Z" fill="white"/>
<path d="M222.76 393.225H213.473V402.375H222.76V393.225Z" fill="white"/>
<path d="M222.76 384.082H213.473V393.223H222.76V384.082Z" fill="white"/>
<path d="M213.472 374.941H204.185V384.083H213.472V374.941Z" fill="white"/>
<path d="M213.473 621.85H204.195V631H213.473V621.85Z" fill="white"/>
<path d="M213.473 484.676H204.195V493.826H213.473V484.676Z" fill="white"/>
<path d="M213.473 475.533H204.195V484.674H213.473V475.533Z" fill="white"/>
<path d="M213.473 466.391H204.195V475.532H213.473V466.391Z" fill="white"/>
<path d="M213.473 457.24H204.195V466.391H213.473V457.24Z" fill="white"/>
<path d="M213.473 448.1H204.195V457.241H213.473V448.1Z" fill="white"/>
<path d="M213.473 438.949H204.195V448.1H213.473V438.949Z" fill="white"/>
<path d="M213.473 429.807H204.195V438.948H213.473V429.807Z" fill="white"/>
<path d="M213.473 420.666H204.195V429.807H213.473V420.666Z" fill="white"/>
<path d="M213.473 411.516H204.195V420.666H213.473V411.516Z" fill="white"/>
<path d="M213.473 402.373H204.195V411.514H213.473V402.373Z" fill="white"/>
<path d="M213.473 393.225H204.195V402.375H213.473V393.225Z" fill="white"/>
<path d="M213.473 384.082H204.195V393.223H213.473V384.082Z" fill="white"/>
<path d="M204.195 621.85H194.927V631H204.195V621.85Z" fill="white"/>
<path d="M204.195 502.965H194.927V512.106H204.195V502.965Z" fill="white"/>
<path d="M204.195 493.824H194.927V502.966H204.195V493.824Z" fill="white"/>
<path d="M204.195 484.676H194.927V493.826H204.195V484.676Z" fill="white"/>
<path d="M204.195 475.533H194.927V484.674H204.195V475.533Z" fill="white"/>
<path d="M204.195 466.391H194.927V475.532H204.195V466.391Z" fill="white"/>
<path d="M204.195 457.24H194.927V466.391H204.195V457.24Z" fill="white"/>
<path d="M204.195 448.1H194.927V457.241H204.195V448.1Z" fill="white"/>
<path d="M204.195 438.949H194.927V448.1H204.195V438.949Z" fill="white"/>
<path d="M204.195 429.807H194.927V438.948H204.195V429.807Z" fill="white"/>
<path d="M204.195 420.666H194.927V429.807H204.195V420.666Z" fill="white"/>
<path d="M204.195 411.516H194.927V420.666H204.195V411.516Z" fill="white"/>
<path d="M204.195 402.373H194.927V411.514H204.195V402.373Z" fill="white"/>
<path d="M204.195 393.225H194.927V402.375H204.195V393.225Z" fill="white"/>
<path d="M204.195 384.082H194.927V393.223H204.195V384.082Z" fill="white"/>
<path d="M194.927 621.85H185.63V631H194.927V621.85Z" fill="white"/>
<path d="M194.927 612.707H185.63V621.848H194.927V612.707Z" fill="white"/>
<path d="M194.927 603.557H185.63V612.707H194.927V603.557Z" fill="white"/>
<path d="M194.927 530.398H185.63V539.549H194.927V530.398Z" fill="white"/>
<path d="M194.927 521.258H185.63V530.399H194.927V521.258Z" fill="white"/>
<path d="M194.927 512.107H185.63V521.258H194.927V512.107Z" fill="white"/>
<path d="M194.927 502.965H185.63V512.106H194.927V502.965Z" fill="white"/>
<path d="M194.927 493.824H185.63V502.966H194.927V493.824Z" fill="white"/>
<path d="M194.927 484.676H185.63V493.826H194.927V484.676Z" fill="white"/>
<path d="M194.927 475.533H185.63V484.674H194.927V475.533Z" fill="white"/>
<path d="M194.927 466.391H185.63V475.532H194.927V466.391Z" fill="white"/>
<path d="M194.927 457.24H185.63V466.391H194.927V457.24Z" fill="white"/>
<path d="M194.927 448.1H185.63V457.241H194.927V448.1Z" fill="white"/>
<path d="M194.927 438.949H185.63V448.1H194.927V438.949Z" fill="white"/>
<path d="M194.927 429.807H185.63V438.948H194.927V429.807Z" fill="white"/>
<path d="M194.927 420.666H185.63V429.807H194.927V420.666Z" fill="white"/>
<path d="M194.927 411.516H185.63V420.666H194.927V411.516Z" fill="white"/>
<path d="M194.927 402.373H185.63V411.514H194.927V402.373Z" fill="white"/>
<path d="M194.927 393.225H185.63V402.375H194.927V393.225Z" fill="white"/>
<path d="M194.927 384.082H185.63V393.223H194.927V384.082Z" fill="white"/>
<path d="M185.629 621.85H176.352V631H185.629V621.85Z" fill="white"/>
<path d="M185.629 612.707H176.352V621.848H185.629V612.707Z" fill="white"/>
<path d="M185.629 603.557H176.352V612.707H185.629V603.557Z" fill="white"/>
<path d="M185.629 548.691H176.352V557.833H185.629V548.691Z" fill="white"/>
<path d="M185.629 539.551H176.352V548.692H185.629V539.551Z" fill="white"/>
<path d="M185.629 530.398H176.352V539.549H185.629V530.398Z" fill="white"/>
<path d="M185.629 521.258H176.352V530.399H185.629V521.258Z" fill="white"/>
<path d="M185.629 512.107H176.352V521.258H185.629V512.107Z" fill="white"/>
<path d="M185.629 502.965H176.352V512.106H185.629V502.965Z" fill="white"/>
<path d="M185.629 493.824H176.352V502.966H185.629V493.824Z" fill="white"/>
<path d="M185.629 484.676H176.352V493.826H185.629V484.676Z" fill="white"/>
<path d="M185.629 475.533H176.352V484.674H185.629V475.533Z" fill="white"/>
<path d="M185.629 466.391H176.352V475.532H185.629V466.391Z" fill="white"/>
<path d="M185.629 457.24H176.352V466.391H185.629V457.24Z" fill="white"/>
<path d="M185.629 448.1H176.352V457.241H185.629V448.1Z" fill="white"/>
<path d="M185.629 438.949H176.352V448.1H185.629V438.949Z" fill="white"/>
<path d="M185.629 429.807H176.352V438.948H185.629V429.807Z" fill="white"/>
<path d="M185.629 420.666H176.352V429.807H185.629V420.666Z" fill="white"/>
<path d="M185.629 411.516H176.352V420.666H185.629V411.516Z" fill="white"/>
<path d="M185.629 402.373H176.352V411.514H185.629V402.373Z" fill="white"/>
<path d="M185.629 393.225H176.352V402.375H185.629V393.225Z" fill="white"/>
<path d="M185.629 384.082H176.352V393.223H185.629V384.082Z" fill="#C1C1C1"/>
<path d="M176.352 621.85H167.074V631H176.352V621.85Z" fill="white"/>
<path d="M176.352 612.707H167.074V621.848H176.352V612.707Z" fill="white"/>
<path d="M176.352 603.557H167.074V612.707H176.352V603.557Z" fill="white"/>
<path d="M176.352 594.416H167.074V603.557H176.352V594.416Z" fill="white"/>
<path d="M176.352 585.275H167.074V594.417H176.352V585.275Z" fill="white"/>
<path d="M176.352 576.125H167.074V585.276H176.352V576.125Z" fill="white"/>
<path d="M176.352 566.982H167.074V576.124H176.352V566.982Z" fill="white"/>
<path d="M176.352 557.832H167.074V566.983H176.352V557.832Z" fill="white"/>
<path d="M176.352 548.691H167.074V557.833H176.352V548.691Z" fill="white"/>
<path d="M176.352 539.551H167.074V548.692H176.352V539.551Z" fill="white"/>
<path d="M176.352 530.398H167.074V539.549H176.352V530.398Z" fill="white"/>
<path d="M176.352 521.258H167.074V530.399H176.352V521.258Z" fill="white"/>
<path d="M176.352 512.107H167.074V521.258H176.352V512.107Z" fill="white"/>
<path d="M176.352 502.965H167.074V512.106H176.352V502.965Z" fill="white"/>
<path d="M176.352 493.824H167.074V502.966H176.352V493.824Z" fill="white"/>
<path d="M176.352 484.676H167.074V493.826H176.352V484.676Z" fill="white"/>
<path d="M176.352 475.533H167.074V484.674H176.352V475.533Z" fill="white"/>
<path d="M176.352 466.391H167.074V475.532H176.352V466.391Z" fill="white"/>
<path d="M176.352 457.24H167.074V466.391H176.352V457.24Z" fill="white"/>
<path d="M176.352 448.1H167.074V457.241H176.352V448.1Z" fill="#C1C1C1"/>
<path d="M176.352 438.949H167.074V448.1H176.352V438.949Z" fill="#C1C1C1"/>
<path d="M176.352 429.807H167.074V438.948H176.352V429.807Z" fill="#C1C1C1"/>
<path d="M176.352 420.666H167.074V429.807H176.352V420.666Z" fill="#C1C1C1"/>
<path d="M176.352 411.516H167.074V420.666H176.352V411.516Z" fill="#C1C1C1"/>
<path d="M176.352 402.373H167.074V411.514H176.352V402.373Z" fill="#C1C1C1"/>
<path d="M176.352 393.225H167.074V402.375H176.352V393.225Z" fill="#C1C1C1"/>
<path d="M176.352 384.082H167.074V393.223H176.352V384.082Z" fill="#C1C1C1"/>
<path d="M167.075 621.85H157.788V631H167.075V621.85Z" fill="white"/>
<path d="M167.075 612.707H157.788V621.848H167.075V612.707Z" fill="white"/>
<path d="M167.075 603.557H157.788V612.707H167.075V603.557Z" fill="white"/>
<path d="M167.075 594.416H157.788V603.557H167.075V594.416Z" fill="white"/>
<path d="M167.075 585.275H157.788V594.417H167.075V585.275Z" fill="white"/>
<path d="M167.075 576.125H157.788V585.276H167.075V576.125Z" fill="white"/>
<path d="M167.075 566.982H157.788V576.124H167.075V566.982Z" fill="white"/>
<path d="M167.075 557.832H157.788V566.983H167.075V557.832Z" fill="white"/>
<path d="M167.075 548.691H157.788V557.833H167.075V548.691Z" fill="white"/>
<path d="M167.075 539.551H157.788V548.692H167.075V539.551Z" fill="white"/>
<path d="M167.075 530.398H157.788V539.549H167.075V530.398Z" fill="white"/>
<path d="M167.075 521.258H157.788V530.399H167.075V521.258Z" fill="white"/>
<path d="M167.075 512.107H157.788V521.258H167.075V512.107Z" fill="white"/>
<path d="M167.075 502.965H157.788V512.106H167.075V502.965Z" fill="white"/>
<path d="M167.075 493.824H157.788V502.966H167.075V493.824Z" fill="white"/>
<path d="M167.075 484.676H157.788V493.826H167.075V484.676Z" fill="white"/>
<path d="M167.075 475.533H157.788V484.674H167.075V475.533Z" fill="white"/>
<path d="M167.075 466.391H157.788V475.532H167.075V466.391Z" fill="white"/>
<path d="M167.075 457.24H157.788V466.391H167.075V457.24Z" fill="white"/>
<path d="M167.075 448.1H157.788V457.241H167.075V448.1Z" fill="white"/>
<path d="M167.075 438.949H157.788V448.1H167.075V438.949Z" fill="white"/>
<path d="M167.075 429.807H157.788V438.948H167.075V429.807Z" fill="white"/>
<path d="M167.075 420.666H157.788V429.807H167.075V420.666Z" fill="white"/>
<path d="M167.075 411.516H157.788V420.666H167.075V411.516Z" fill="white"/>
<path d="M167.075 402.373H157.788V411.514H167.075V402.373Z" fill="white"/>
<path d="M167.075 393.225H157.788V402.375H167.075V393.225Z" fill="#C1C1C1"/>
<path d="M167.075 384.082H157.788V393.223H167.075V384.082Z" fill="#C1C1C1"/>
<path d="M157.787 621.85H148.51V631H157.787V621.85Z" fill="white"/>
<path d="M157.787 548.691H148.51V557.833H157.787V548.691Z" fill="white"/>
<path d="M157.787 539.551H148.51V548.692H157.787V539.551Z" fill="white"/>
<path d="M157.787 530.398H148.51V539.549H157.787V530.398Z" fill="white"/>
<path d="M157.787 521.258H148.51V530.399H157.787V521.258Z" fill="white"/>
<path d="M157.787 512.107H148.51V521.258H157.787V512.107Z" fill="white"/>
<path d="M157.787 502.965H148.51V512.106H157.787V502.965Z" fill="white"/>
<path d="M157.787 493.824H148.51V502.966H157.787V493.824Z" fill="white"/>
<path d="M157.787 484.676H148.51V493.826H157.787V484.676Z" fill="white"/>
<path d="M157.787 475.533H148.51V484.674H157.787V475.533Z" fill="white"/>
<path d="M157.787 466.391H148.51V475.532H157.787V466.391Z" fill="white"/>
<path d="M157.787 457.24H148.51V466.391H157.787V457.24Z" fill="white"/>
<path d="M157.787 448.1H148.51V457.241H157.787V448.1Z" fill="white"/>
<path d="M157.787 438.949H148.51V448.1H157.787V438.949Z" fill="white"/>
<path d="M157.787 429.807H148.51V438.948H157.787V429.807Z" fill="white"/>
<path d="M157.787 420.666H148.51V429.807H157.787V420.666Z" fill="white"/>
<path d="M157.787 411.516H148.51V420.666H157.787V411.516Z" fill="white"/>
<path d="M157.787 402.373H148.51V411.514H157.787V402.373Z" fill="white"/>
<path d="M157.787 393.225H148.51V402.375H157.787V393.225Z" fill="white"/>
<path d="M157.787 384.082H148.51V393.223H157.787V384.082Z" fill="white"/>
<path d="M148.51 621.85H139.223V631H148.51V621.85Z" fill="white"/>
<path d="M148.51 539.551H139.223V548.692H148.51V539.551Z" fill="white"/>
<path d="M148.51 530.398H139.223V539.549H148.51V530.398Z" fill="white"/>
<path d="M148.51 521.258H139.223V530.399H148.51V521.258Z" fill="white"/>
<path d="M148.51 512.107H139.223V521.258H148.51V512.107Z" fill="white"/>
<path d="M148.51 502.965H139.223V512.106H148.51V502.965Z" fill="white"/>
<path d="M148.51 493.824H139.223V502.966H148.51V493.824Z" fill="white"/>
<path d="M148.51 484.676H139.223V493.826H148.51V484.676Z" fill="white"/>
<path d="M148.51 475.533H139.223V484.674H148.51V475.533Z" fill="white"/>
<path d="M148.51 466.391H139.223V475.532H148.51V466.391Z" fill="white"/>
<path d="M148.51 457.24H139.223V466.391H148.51V457.24Z" fill="white"/>
<path d="M148.51 448.1H139.223V457.241H148.51V448.1Z" fill="white"/>
<path d="M148.51 438.949H139.223V448.1H148.51V438.949Z" fill="white"/>
<path d="M148.51 429.807H139.223V438.948H148.51V429.807Z" fill="white"/>
<path d="M148.51 420.666H139.223V429.807H148.51V420.666Z" fill="white"/>
<path d="M148.51 411.516H139.223V420.666H148.51V411.516Z" fill="white"/>
<path d="M148.51 402.373H139.223V411.514H148.51V402.373Z" fill="white"/>
<path d="M148.51 393.225H139.223V402.375H148.51V393.225Z" fill="white"/>
<path d="M148.51 384.082H139.223V393.223H148.51V384.082Z" fill="white"/>
<path d="M139.222 512.107H129.944V521.258H139.222V512.107Z" fill="white"/>
<path d="M139.222 502.965H129.944V512.106H139.222V502.965Z" fill="white"/>
<path d="M139.222 493.824H129.944V502.966H139.222V493.824Z" fill="white"/>
<path d="M139.222 484.676H129.944V493.826H139.222V484.676Z" fill="white"/>
<path d="M139.222 475.533H129.944V484.674H139.222V475.533Z" fill="white"/>
<path d="M139.222 466.391H129.944V475.532H139.222V466.391Z" fill="white"/>
<path d="M139.222 457.24H129.944V466.391H139.222V457.24Z" fill="white"/>
<path d="M139.222 448.1H129.944V457.241H139.222V448.1Z" fill="white"/>
<path d="M139.222 438.949H129.944V448.1H139.222V438.949Z" fill="white"/>
<path d="M139.222 429.807H129.944V438.948H139.222V429.807Z" fill="white"/>
<path d="M139.222 420.666H129.944V429.807H139.222V420.666Z" fill="white"/>
<path d="M139.222 411.516H129.944V420.666H139.222V411.516Z" fill="white"/>
<path d="M139.222 402.373H129.944V411.514H139.222V402.373Z" fill="white"/>
<path d="M139.222 393.225H129.944V402.375H139.222V393.225Z" fill="white"/>
<path d="M139.222 384.082H129.944V393.223H139.222V384.082Z" fill="white"/>
<path d="M129.945 484.676H120.658V493.826H129.945V484.676Z" fill="white"/>
<path d="M129.945 475.533H120.658V484.674H129.945V475.533Z" fill="white"/>
<path d="M129.945 466.391H120.658V475.532H129.945V466.391Z" fill="white"/>
<path d="M129.945 457.24H120.658V466.391H129.945V457.24Z" fill="white"/>
<path d="M129.945 448.1H120.658V457.241H129.945V448.1Z" fill="white"/>
<path d="M129.945 438.949H120.658V448.1H129.945V438.949Z" fill="white"/>
<path d="M129.945 429.807H120.658V438.948H129.945V429.807Z" fill="white"/>
<path d="M129.945 420.666H120.658V429.807H129.945V420.666Z" fill="white"/>
<path d="M129.945 411.516H120.658V420.666H129.945V411.516Z" fill="white"/>
<path d="M129.945 402.373H120.658V411.514H129.945V402.373Z" fill="white"/>
<path d="M129.945 393.225H120.658V402.375H129.945V393.225Z" fill="white"/>
<path d="M129.945 384.082H120.658V393.223H129.945V384.082Z" fill="white"/>
<path d="M120.658 402.373H111.38V411.514H120.658V402.373Z" fill="white"/>
<path d="M120.658 393.225H111.38V402.375H120.658V393.225Z" fill="white"/>
<path d="M120.658 384.082H111.38V393.223H120.658V384.082Z" fill="white"/>
</g>
<defs>
<clipPath id="clip0">
<rect width="297" height="631" fill="white"/>
</clipPath>
</defs>
</svg>
