<svg width="126" height="128" viewBox="0 0 126 128" fill="none" xmlns="http://www.w3.org/2000/svg">
<path d="M80.3604 39.999L88.1345 43.1038L80.3604 45.9022L77.2586 53.9909L74.1437 45.9022L66.3828 43.1038L74.1437 39.999L77.2586 32.2168L80.3604 39.999Z" fill="#E0E0E0"/>
<path d="M20.2532 56.5449C23.4792 53.3324 27.3712 51.8074 31.9009 51.9605C36.4405 51.8217 40.3182 53.3763 43.534 56.6056L47.2788 52.8765C43.0381 48.618 37.9183 46.4008 31.9006 46.2439C25.7414 46.2278 20.5393 48.3427 16.2852 52.5791L20.2438 56.5543L20.2532 56.5449Z" fill="#E0E0E0"/>
<path d="M82.7093 56.5449C85.9353 53.3324 89.8273 51.8074 94.357 51.9605C98.8966 51.8217 102.774 53.3763 105.99 56.6056L109.735 52.8765C105.494 48.618 100.374 46.4008 94.3567 46.2439C88.1974 46.2278 82.9954 48.3427 78.7412 52.5791L82.6998 56.5543L82.7093 56.5449Z" fill="#E0E0E0"/>
<path d="M36.3616 19.3144C39.5876 16.1019 43.4796 14.577 48.0093 14.7301C52.5489 14.5912 56.4266 16.1459 59.6424 19.3751L63.3872 15.646C59.1465 11.3875 54.0267 9.17035 48.009 9.01339C41.8498 8.99733 36.6477 11.1122 32.3936 15.3486L36.3522 19.3238L36.3616 19.3144Z" fill="#E0E0E0"/>
<path d="M20.2489 56.5501C17.023 59.7626 15.4817 63.6482 15.6158 68.1785C15.4579 72.7175 16.9963 76.6016 20.2121 79.8309L16.4673 83.5601C12.2266 79.3015 10.0309 74.1725 9.89918 68.1542C9.90894 61.9949 12.0456 56.8018 16.2998 52.5655L20.2584 56.5407L20.2489 56.5501Z" fill="#E0E0E0"/>
<path d="M82.7069 56.5501C79.481 59.7626 77.9397 63.6482 78.0738 68.1785C77.9159 72.7175 79.4543 76.6016 82.6701 79.8309L78.9253 83.5601C74.6846 79.3015 72.4889 74.1725 72.3572 68.1542C72.3669 61.9949 74.5036 56.8018 78.7578 52.5655L82.7164 56.5407L82.7069 56.5501Z" fill="#E0E0E0"/>
<path d="M36.3573 19.3177C33.1314 22.5302 31.5901 26.4157 31.7242 30.9461C31.5663 35.4851 33.1047 39.3692 36.3205 42.5985L32.5757 46.3276C28.335 42.0691 26.1393 36.9401 26.0076 30.9218C26.0173 24.7625 28.154 19.5694 32.4082 15.333L36.3668 19.3083L36.3573 19.3177Z" fill="#E0E0E0"/>
<path d="M43.4649 79.8561C46.6909 76.6437 48.2322 72.7581 48.0981 68.2278C48.2559 63.6888 46.7176 59.8046 43.5018 56.5753L47.2466 52.8462C51.4873 57.1047 53.6829 62.2337 53.8147 68.2521C53.8049 74.4113 51.6682 79.6044 47.4141 83.8408L43.4555 79.8656L43.4649 79.8561Z" fill="#E0E0E0"/>
<path d="M105.922 79.8561C109.148 76.6437 110.689 72.7581 110.555 68.2278C110.713 63.6888 109.175 59.8046 105.959 56.5753L109.704 52.8462C113.944 57.1047 116.14 62.2337 116.272 68.2521C116.262 74.4113 114.125 79.6044 109.871 83.8408L105.913 79.8656L105.922 79.8561Z" fill="#E0E0E0"/>
<path d="M59.5723 42.6218C62.7983 39.4093 64.3396 35.5237 64.2055 30.9934C64.3634 26.4544 62.825 22.5703 59.6092 19.341L63.354 15.6118C67.5947 19.8703 69.7904 24.9993 69.9221 31.0177C69.9124 37.1769 67.7757 42.3701 63.5215 46.6064L59.5629 42.6312L59.5723 42.6218Z" fill="#E0E0E0"/>
<path d="M38.3721 128L27.1768 105.92H38.3721L49.2345 128H38.3721Z" fill="#E0E0E0"/>
<path d="M60.4063 128L49.2109 105.92H60.4063L71.2687 128H60.4063Z" fill="#E0E0E0"/>
<path d="M88.3389 127.696L99.5342 105.615H88.3389L77.4764 127.696H88.3389Z" fill="#E0E0E0"/>
<path d="M16.3359 105.965L5.14062 83.8848H16.3359L27.1984 105.965H16.3359Z" fill="#E0E0E0"/>
<path d="M38.6758 105.965L27.4805 83.8848H38.6758L49.5382 105.965H38.6758Z" fill="#E0E0E0"/>
<path d="M60.4063 105.965L49.2109 83.8848H60.4063L71.2687 105.965H60.4063Z" fill="#E0E0E0"/>
<path d="M109.917 105.965L121.112 83.8848H109.917L99.0546 105.965H109.917Z" fill="#E0E0E0"/>
<path d="M88.0352 105.965L99.2305 83.8848H88.0352L77.1727 105.965H88.0352Z" fill="#E0E0E0"/>
</svg>
