<svg width="64" height="64" viewBox="0 0 64 64" fill="none" xmlns="http://www.w3.org/2000/svg">
<path d="M32.4831 17.514C32.4831 18.7554 32.2904 20.0217 31.9052 21.3128C31.5199 22.604 30.9421 23.8206 30.1716 24.9628C29.4011 26.0552 28.4138 27.0236 27.2099 27.8678C26.006 28.712 24.5854 29.3575 22.9481 29.8045V30.1024C24.3928 30.3507 25.7652 30.7728 27.0655 31.3687C28.4138 31.9646 29.5937 32.784 30.605 33.8268C31.6163 34.8696 32.4349 36.1359 33.0609 37.6257C33.687 39.1155 34 40.8783 34 42.9143C34 45.5959 33.4462 47.9299 32.3386 49.9162C31.2792 51.8529 29.8585 53.442 28.0767 54.6834C26.3431 55.9249 24.3446 56.8436 22.0813 57.4395C19.8179 58.0354 17.5064 58.3333 15.1467 58.3333C14.3281 58.3333 13.3649 58.3333 12.2573 58.3333C11.1497 58.3333 9.99398 58.2837 8.79007 58.1844C7.58616 58.1347 6.38224 58.0354 5.17833 57.8864C3.97442 57.7871 2.91497 57.6133 2 57.365L2 6.04283C3.78179 5.74488 5.85252 5.49658 8.21219 5.29795C10.5719 5.09932 13.1482 5 15.9413 5C17.8194 5 19.7216 5.1738 21.6479 5.52141C23.6223 5.81936 25.4041 6.4401 26.9932 7.38361C28.5824 8.27746 29.8826 9.54376 30.8939 11.1825C31.9533 12.8212 32.4831 14.9317 32.4831 17.514ZM15.7246 52.9702C17.2656 52.9702 18.7585 52.7716 20.2032 52.3743C21.6479 51.977 22.924 51.3811 24.0316 50.5866C25.1392 49.792 26.006 48.7989 26.6321 47.6071C27.3062 46.4153 27.6433 45 27.6433 43.3613C27.6433 41.3253 27.234 39.6865 26.4154 38.4451C25.6448 37.2036 24.6095 36.2353 23.3093 35.54C22.0572 34.8448 20.6366 34.3731 19.0474 34.1248C17.4582 33.8765 15.8691 33.7523 14.2799 33.7523H7.99549L7.99549 52.4488C8.33258 52.5481 8.81415 52.6226 9.44018 52.6722C10.0662 52.7219 10.7404 52.7716 11.4628 52.8212C12.1851 52.8709 12.9315 52.9205 13.702 52.9702C14.4725 52.9702 15.1467 52.9702 15.7246 52.9702ZM11.7517 28.5382C12.5704 28.5382 13.5576 28.5133 14.7133 28.4637C15.8691 28.414 16.8322 28.3395 17.6027 28.2402C18.7585 27.843 19.842 27.3712 20.8533 26.8249C21.8646 26.229 22.7555 25.5338 23.526 24.7393C24.3446 23.9448 24.9707 23.0509 25.4041 22.0577C25.8856 21.0646 26.1264 19.9721 26.1264 18.7803C26.1264 17.1415 25.8134 15.7759 25.1874 14.6834C24.6095 13.5909 23.8149 12.7219 22.8036 12.0763C21.7923 11.4308 20.6366 10.9839 19.3363 10.7356C18.0361 10.4873 16.7118 10.3631 15.3634 10.3631C13.7743 10.3631 12.3055 10.4128 10.9571 10.5121C9.65688 10.5618 8.66968 10.6611 7.99549 10.8101L7.99549 28.5382H11.7517Z" fill="black"/>
<path d="M37 17.8333C37 13.8532 38.1194 10.806 40.3582 8.69154C42.597 6.45273 45.5821 5.33333 49.3134 5.33333C53.2935 5.33333 56.403 6.45273 58.6418 8.69154C60.8806 10.806 62 13.8532 62 17.8333C62 21.4403 60.8806 24.4254 58.6418 26.7886C56.403 29.1517 53.2935 30.3333 49.3134 30.3333C45.5821 30.3333 42.597 29.1517 40.3582 26.7886C38.1194 24.4254 37 21.4403 37 17.8333Z" fill="black"/>
<path d="M37 45.8333C37 41.8532 38.1194 38.806 40.3582 36.6915C42.597 34.4527 45.5821 33.3333 49.3134 33.3333C53.2935 33.3333 56.403 34.4527 58.6418 36.6915C60.8806 38.806 62 41.8532 62 45.8333C62 49.4403 60.8806 52.4254 58.6418 54.7886C56.403 57.1517 53.2935 58.3333 49.3134 58.3333C45.5821 58.3333 42.597 57.1517 40.3582 54.7886C38.1194 52.4254 37 49.4403 37 45.8333Z" fill="black"/>
</svg>
