<svg width="138" height="128" viewBox="0 0 138 128" fill="none" xmlns="http://www.w3.org/2000/svg">
<path d="M53.2863 90.3904C57.5161 94.6202 62.6255 96.6346 68.5776 96.4459C74.5418 96.6408 79.6533 94.5964 83.8751 90.3747L89.0695 95.5691C83.4859 101.153 76.654 103.953 68.5613 103.957C60.6667 103.763 53.9243 100.883 48.3465 95.3055L53.2739 90.3781L53.2863 90.3904Z" fill="#E0E0E0"/>
<path d="M77.0012 8.61478C75.1612 16.2921 75.0285 23.2699 76.6088 29.5242C77.9244 35.7154 80.5682 39.2848 84.5402 40.2325C76.5962 38.3372 70.6545 33.9809 66.6668 27.1523C62.4385 20.2662 61.2323 12.9816 63.0872 5.29521L77.0012 8.61478Z" fill="#E0E0E0"/>
<path d="M51.1377 64.5336L61.3522 68.6132L51.1377 72.29L47.0623 82.9177L42.9696 72.29L32.7725 68.6132L42.9696 64.5336L47.0623 54.3086L51.1377 64.5336Z" fill="#E0E0E0"/>
<path d="M32.5567 68.6952C32.5567 62.7134 34.7453 57.676 39.0874 53.6007C43.1669 49.2455 48.2094 47.0767 54.1974 47.0767L54.1974 40.1328C46.301 40.1328 39.4901 42.8438 33.7648 48.301C28.0395 54.0204 25.1855 60.8244 25.1855 68.7127L32.5567 68.7127L32.5567 68.6952Z" fill="#E0E0E0"/>
<path d="M104.729 68.6952C104.729 62.7134 102.541 57.676 98.1987 53.6007C94.1192 49.2455 89.0767 47.0767 83.0888 47.0767L83.0888 40.1328C90.9852 40.1328 97.796 42.8438 103.521 48.301C109.247 54.0204 112.101 60.8244 112.101 68.7127L104.729 68.7127L104.729 68.6952Z" fill="#E0E0E0"/>
<path d="M25.6586 99.5129C21.3657 95.3472 19.2747 90.2686 19.3739 84.3143C19.0893 78.3537 21.0444 73.2246 25.2144 68.9273L20.2311 64.0916C14.7321 69.7585 11.9346 76.5343 11.8638 84.4434C11.9813 92.5353 14.8768 99.3217 20.5379 104.815L25.6711 99.5251L25.6586 99.5129Z" fill="#E0E0E0"/>
<path d="M111.628 99.5129C115.92 95.3472 118.011 90.2686 117.912 84.3143C118.197 78.3537 116.242 73.2246 112.072 68.9273L117.055 64.0916C122.554 69.7585 125.352 76.5343 125.422 84.4434C125.305 92.5353 122.409 99.3217 116.748 104.815L111.615 99.5251L111.628 99.5129Z" fill="#E0E0E0"/>
<path d="M32.7559 99.4376C32.7559 105.419 34.9445 110.457 39.2866 114.532C43.3661 118.887 48.4086 121.056 54.3966 121.056L54.3966 128C46.5002 128 39.6893 125.289 33.964 119.832C28.2387 114.112 25.3848 107.308 25.3848 99.4201L32.7559 99.4201L32.7559 99.4376Z" fill="#E0E0E0"/>
<path d="M104.529 99.4376C104.529 105.419 102.341 110.457 97.9985 114.532C93.919 118.887 88.8765 121.056 82.8886 121.056L82.8886 128C90.785 128 97.5958 125.289 103.321 119.832C109.046 114.112 111.9 107.308 111.9 99.4201L104.529 99.4201L104.529 99.4376Z" fill="#E0E0E0"/>
</svg>
