<svg width="68" height="63" viewBox="0 0 68 63" fill="none" xmlns="http://www.w3.org/2000/svg">
<path d="M26.2139 44.4885C28.2957 46.5703 30.8105 47.5617 33.7401 47.4689C36.6756 47.5648 39.1914 46.5586 41.2693 44.4807L43.8259 47.0373C41.0778 49.7855 37.7151 51.1637 33.732 51.1657C29.8464 51.0703 26.5279 49.6529 23.7826 46.9076L26.2078 44.4824L26.2139 44.4885Z" fill="#8C8C8C"/>
<path d="M37.8854 4.24108C36.9798 8.01973 36.9145 11.4541 37.6923 14.5324C38.3398 17.5797 39.6411 19.3365 41.596 19.8029C37.6861 18.8701 34.7617 16.726 32.799 13.365C30.7179 9.97574 30.1242 6.3904 31.0372 2.60723L37.8854 4.24108Z" fill="#8C8C8C"/>
<path d="M25.1563 31.7631L30.1837 33.771L25.1563 35.5807L23.1505 40.8115L21.1361 35.5807L16.1172 33.771L21.1361 31.7631L23.1505 26.7305L25.1563 31.7631Z" fill="#8C8C8C"/>
<path d="M16.0108 33.8119C16.0108 30.8678 17.088 28.3885 19.2251 26.3826C21.233 24.2391 23.7149 23.1716 26.6621 23.1716L26.6621 19.7539C22.7755 19.7539 19.4233 21.0882 16.6054 23.7742C13.7875 26.5892 12.3828 29.938 12.3828 33.8206L16.0108 33.8206L16.0108 33.8119Z" fill="#8C8C8C"/>
<path d="M51.5332 33.8119C51.5332 30.8678 50.456 28.3885 48.3188 26.3826C46.3109 24.2391 43.8291 23.1716 40.8819 23.1716L40.8819 19.7539C44.7684 19.7539 48.1206 21.0882 50.9385 23.7742C53.7565 26.5892 55.1611 29.938 55.1611 33.8206L51.5332 33.8206L51.5332 33.8119Z" fill="#8C8C8C"/>
<path d="M12.6154 48.9793C10.5024 46.929 9.47331 44.4293 9.52211 41.4987C9.38205 38.565 10.3443 36.0405 12.3967 33.9254L9.94402 31.5454C7.23747 34.3345 5.86059 37.6695 5.82576 41.5623C5.8836 45.545 7.30871 48.8852 10.095 51.5889L12.6215 48.9853L12.6154 48.9793Z" fill="#8C8C8C"/>
<path d="M54.9286 48.9793C57.0415 46.929 58.0706 44.4293 58.0218 41.4987C58.1619 38.565 57.1996 36.0405 55.1472 33.9254L57.5999 31.5454C60.3065 34.3345 61.6834 37.6695 61.7182 41.5623C61.6603 45.545 60.2352 48.8852 57.4489 51.5889L54.9224 48.9853L54.9286 48.9793Z" fill="#8C8C8C"/>
<path d="M16.1084 48.942C16.1084 51.8861 17.1856 54.3655 19.3228 56.3713C21.3307 58.5149 23.8125 59.5823 26.7597 59.5823L26.7597 63C22.8732 63 19.521 61.6657 16.7031 58.9797C13.8851 56.1647 12.4805 52.8159 12.4805 48.9333L16.1084 48.9333L16.1084 48.942Z" fill="#8C8C8C"/>
<path d="M51.4345 48.942C51.4345 51.8861 50.3573 54.3655 48.2202 56.3713C46.2123 58.5149 43.7305 59.5823 40.7833 59.5823L40.7833 63C44.6698 63 48.022 61.6657 50.8399 58.9797C53.6578 56.1647 55.0625 52.8159 55.0625 48.9333L51.4345 48.9333L51.4345 48.942Z" fill="#8C8C8C"/>
</svg>
