<svg width="519" height="567" viewBox="0 0 519 567" fill="none" xmlns="http://www.w3.org/2000/svg">
<g clip-path="url(#clip0)">
<path d="M22.5782 544.457H0V566.999H22.5782V544.457Z" fill="#E6A47B"/>
<path d="M519 544.457H496.422V566.999H519V544.457Z" fill="#E6A47B"/>
<path d="M519 521.916H496.422V544.458H519V521.916Z" fill="#F4D9AE"/>
<path d="M519 318.947H496.422V341.489H519V318.947Z" fill="#606060"/>
<path d="M496.421 544.457H473.866V566.999H496.421V544.457Z" fill="#E6A47B"/>
<path d="M496.421 521.916H473.866V544.458H496.421V521.916Z" fill="#F4D9AE"/>
<path d="M496.421 499.352H473.866V521.917H496.421V499.352Z" fill="#F4D9AE"/>
<path d="M496.421 341.488H473.866V364.053H496.421V341.488Z" fill="#F4D9AE"/>
<path d="M496.421 318.947H473.866V341.489H496.421V318.947Z" fill="#F4D9AE"/>
<path d="M473.866 544.457H451.288V566.999H473.866V544.457Z" fill="#E6A47B"/>
<path d="M473.866 521.916H451.288V544.458H473.866V521.916Z" fill="#F4D9AE"/>
<path d="M473.866 499.352H451.288V521.917H473.866V499.352Z" fill="#F4D9AE"/>
<path d="M473.866 476.811H451.288V499.352H473.866V476.811Z" fill="#F4D9AE"/>
<path d="M473.866 454.244H451.288V476.809H473.866V454.244Z" fill="#F4D9AE"/>
<path d="M473.866 431.703H451.288V454.245H473.866V431.703Z" fill="#F4D9AE"/>
<path d="M473.866 409.16H451.288V431.702H473.866V409.16Z" fill="#F4D9AE"/>
<path d="M473.866 386.572H451.288V409.16H473.866V386.572Z" fill="#F4D9AE"/>
<path d="M473.866 364.053H451.288V386.572H473.866V364.053Z" fill="#F4D9AE"/>
<path d="M473.866 341.488H451.288V364.053H473.866V341.488Z" fill="#F4D9AE"/>
<path d="M473.866 318.947H451.288V341.489H473.866V318.947Z" fill="#F4D9AE"/>
<path d="M473.866 296.404H451.288V318.946H473.866V296.404Z" fill="#F4D9AE"/>
<path d="M451.289 544.457H428.733V566.999H451.289V544.457Z" fill="#E6A47B"/>
<path d="M451.289 521.916H428.733V544.458H451.289V521.916Z" fill="#F4D9AE"/>
<path d="M451.289 499.352H428.733V521.917H451.289V499.352Z" fill="#F4D9AE"/>
<path d="M451.289 476.811H428.733V499.352H451.289V476.811Z" fill="#F4D9AE"/>
<path d="M451.289 454.244H428.733V476.809H451.289V454.244Z" fill="#F4D9AE"/>
<path d="M451.289 431.703H428.733V454.245H451.289V431.703Z" fill="#F4D9AE"/>
<path d="M451.289 409.16H428.733V431.702H451.289V409.16Z" fill="#F4D9AE"/>
<path d="M451.289 386.572H428.733V409.16H451.289V386.572Z" fill="#F4D9AE"/>
<path d="M451.289 364.053H428.733V386.572H451.289V364.053Z" fill="#F4D9AE"/>
<path d="M451.289 341.488H428.733V364.053H451.289V341.488Z" fill="#F4D9AE"/>
<path d="M451.289 318.947H428.733V341.489H451.289V318.947Z" fill="#F4D9AE"/>
<path d="M451.289 296.404H428.733V318.946H451.289V296.404Z" fill="#F4D9AE"/>
<path d="M451.289 273.84H428.733V296.405H451.289V273.84Z" fill="#F4D9AE"/>
<path d="M428.733 544.457H406.154V566.999H428.733V544.457Z" fill="#E6A47B"/>
<path d="M428.733 521.916H406.154V544.458H428.733V521.916Z" fill="#F4D9AE"/>
<path d="M428.733 499.352H406.154V521.917H428.733V499.352Z" fill="#F4D9AE"/>
<path d="M428.733 476.811H406.154V499.352H428.733V476.811Z" fill="#E6A47B"/>
<path d="M406.178 499.352H383.6V521.894H406.178V499.352Z" fill="#E6A47B"/>
<path d="M428.733 454.244H406.154V476.809H428.733V454.244Z" fill="#E6A47B"/>
<path d="M428.733 431.703H406.154V454.245H428.733V431.703Z" fill="#E6A47B"/>
<path d="M428.733 409.16H406.154V431.702H428.733V409.16Z" fill="#E6A47B"/>
<path d="M428.733 386.572H406.154V409.16H428.733V386.572Z" fill="#E6A47B"/>
<path d="M428.733 364.053H406.154V386.572H428.733V364.053Z" fill="#E6A47B"/>
<path d="M428.733 341.488H406.154V364.053H428.733V341.488Z" fill="#F4D9AE"/>
<path d="M428.733 318.947H406.154V341.489H428.733V318.947Z" fill="#F4D9AE"/>
<path d="M428.733 296.404H406.154V318.946H428.733V296.404Z" fill="#E6A47B"/>
<path d="M428.733 273.84H406.154V296.405H428.733V273.84Z" fill="#F4D9AE"/>
<path d="M428.733 251.273H406.154V273.838H428.733V251.273Z" fill="#F4D9AE"/>
<path d="M406.155 544.457H383.6V566.999H406.155V544.457Z" fill="#E6A47B"/>
<path d="M406.155 521.916H383.6V544.458H406.155V521.916Z" fill="#F4D9AE"/>
<path d="M406.155 476.811H383.6V499.352H406.155V476.811Z" fill="#F7C186"/>
<path d="M406.155 454.244H383.6V476.809H406.155V454.244Z" fill="#F7C186"/>
<path d="M406.155 431.703H383.6V454.245H406.155V431.703Z" fill="#F7C186"/>
<path d="M406.155 409.16H383.6V431.702H406.155V409.16Z" fill="#F7C186"/>
<path d="M406.155 386.572H383.6V409.16H406.155V386.572Z" fill="#F7C186"/>
<path d="M406.155 364.053H383.6V386.572H406.155V364.053Z" fill="#E6A47B"/>
<path d="M406.155 341.488H383.6V364.053H406.155V341.488Z" fill="#F4D9AE"/>
<path d="M406.155 318.947H383.6V341.489H406.155V318.947Z" fill="#F4D9AE"/>
<path d="M406.177 296.381H383.622V318.923H406.177V296.381Z" fill="#F7C186"/>
<path d="M406.155 273.84H383.6V296.405H406.155V273.84Z" fill="#E6A47B"/>
<path d="M406.155 251.273H383.6V273.838H406.155V251.273Z" fill="#F4D9AE"/>
<path d="M406.155 228.732H383.6V251.274H406.155V228.732Z" fill="#F4D9AE"/>
<path d="M383.6 544.457H361.067V566.999H383.6V544.457Z" fill="#E6A47B"/>
<path d="M383.6 521.916H361.067V544.458H383.6V521.916Z" fill="#F4D9AE"/>
<path d="M383.6 499.352H361.067V521.917H383.6V499.352Z" fill="#F4D9AE"/>
<path d="M383.6 476.811H361.067V499.352H383.6V476.811Z" fill="#E6A47B"/>
<path d="M383.6 454.244H361.067V476.809H383.6V454.244Z" fill="#E6A47B"/>
<path d="M383.6 431.703H361.067V454.245H383.6V431.703Z" fill="#E6A47B"/>
<path d="M383.6 409.16H361.067V431.702H383.6V409.16Z" fill="#E6A47B"/>
<path d="M383.6 386.572H361.067V409.16H383.6V386.572Z" fill="#E6A47B"/>
<path d="M383.6 364.053H361.067V386.572H383.6V364.053Z" fill="#E6A47B"/>
<path d="M383.6 341.488H361.067V364.053H383.6V341.488Z" fill="#F4D9AE"/>
<path d="M383.6 318.947H361.067V341.489H383.6V318.947Z" fill="#F4D9AE"/>
<path d="M383.622 296.381H361.09V318.923H383.622V296.381Z" fill="#F7C186"/>
<path d="M383.646 273.793H361.114V296.358H383.646V273.793Z" fill="#F7C186"/>
<path d="M383.6 251.273H361.067V273.838H383.6V251.273Z" fill="#E6A47B"/>
<path d="M383.6 228.732H361.067V251.274H383.6V228.732Z" fill="#F4D9AE"/>
<path d="M383.6 206.191H361.067V228.733H383.6V206.191Z" fill="#F4D9AE"/>
<path d="M361.067 544.457H338.466V566.999H361.067V544.457Z" fill="#E6A47B"/>
<path d="M361.067 521.916H338.466V544.458H361.067V521.916Z" fill="#F4D9AE"/>
<path d="M361.067 499.352H338.466V521.917H361.067V499.352Z" fill="#F4D9AE"/>
<path d="M361.067 476.811H338.466V499.352H361.067V476.811Z" fill="#F4D9AE"/>
<path d="M361.067 454.244H338.466V476.809H361.067V454.244Z" fill="#F4D9AE"/>
<path d="M361.067 431.703H338.466V454.245H361.067V431.703Z" fill="#F4D9AE"/>
<path d="M361.067 409.16H338.466V431.702H361.067V409.16Z" fill="#F4D9AE"/>
<path d="M361.067 386.572H338.466V409.16H361.067V386.572Z" fill="#F4D9AE"/>
<path d="M361.067 364.053H338.466V386.572H361.067V364.053Z" fill="#F4D9AE"/>
<path d="M361.067 341.488H338.466V364.053H361.067V341.488Z" fill="#F4D9AE"/>
<path d="M361.067 318.947H338.466V341.489H361.067V318.947Z" fill="#F4D9AE"/>
<path d="M361.09 296.381H338.489V318.923H361.09V296.381Z" fill="#F7C186"/>
<path d="M361.09 273.816H338.489V296.381H361.09V273.816Z" fill="#F7C186"/>
<path d="M361.114 251.229H338.513V273.793H361.114V251.229Z" fill="#F7C186"/>
<path d="M361.067 228.732H338.466V251.274H361.067V228.732Z" fill="#E6A47B"/>
<path d="M361.067 206.191H338.466V228.733H361.067V206.191Z" fill="#F4D9AE"/>
<path d="M361.067 183.648H338.466V206.19H361.067V183.648Z" fill="#F4D9AE"/>
<path d="M338.466 544.457H315.911V566.999H338.466V544.457Z" fill="#E6A47B"/>
<path d="M338.466 521.916H315.911V544.458H338.466V521.916Z" fill="#F4D9AE"/>
<path d="M338.466 499.352H315.911V521.917H338.466V499.352Z" fill="#F4D9AE"/>
<path d="M338.466 476.811H315.911V499.352H338.466V476.811Z" fill="#F4D9AE"/>
<path d="M338.466 454.244H315.911V476.809H338.466V454.244Z" fill="#F4D9AE"/>
<path d="M338.466 431.703H315.911V454.245H338.466V431.703Z" fill="#F4D9AE"/>
<path d="M338.466 409.16H315.911V431.702H338.466V409.16Z" fill="#F4D9AE"/>
<path d="M338.466 386.572H315.911V409.16H338.466V386.572Z" fill="#F4D9AE"/>
<path d="M338.466 364.053H315.911V386.572H338.466V364.053Z" fill="#F4D9AE"/>
<path d="M338.466 341.488H315.911V364.053H338.466V341.488Z" fill="#F4D9AE"/>
<path d="M338.466 318.947H315.911V341.489H338.466V318.947Z" fill="#F4D9AE"/>
<path d="M338.489 296.381H315.934V318.923H338.489V296.381Z" fill="#F7C186"/>
<path d="M338.489 273.816H315.934V296.381H338.489V273.816Z" fill="#F7C186"/>
<path d="M338.489 251.252H315.934V273.817H338.489V251.252Z" fill="#F7C186"/>
<path d="M338.512 228.688H315.957V251.229H338.512V228.688Z" fill="#F7C186"/>
<path d="M338.466 206.191H315.911V228.733H338.466V206.191Z" fill="#E6A47B"/>
<path d="M338.466 183.648H315.911V206.19H338.466V183.648Z" fill="#F4D9AE"/>
<path d="M338.466 161.084H315.911V183.649H338.466V161.084Z" fill="#F4D9AE"/>
<path d="M315.911 544.457H293.355V566.999H315.911V544.457Z" fill="#E6A47B"/>
<path d="M315.911 521.916H293.355V544.458H315.911V521.916Z" fill="#F4D9AE"/>
<path d="M315.911 499.352H293.355V521.917H315.911V499.352Z" fill="#F4D9AE"/>
<path d="M315.911 476.811H293.355V499.352H315.911V476.811Z" fill="#E6A47B"/>
<path d="M293.356 499.352H270.801V521.894H293.356V499.352Z" fill="#E6A47B"/>
<path d="M315.911 454.244H293.355V476.809H315.911V454.244Z" fill="#E6A47B"/>
<path d="M315.911 431.703H293.355V454.245H315.911V431.703Z" fill="#E6A47B"/>
<path d="M315.911 409.16H293.355V431.702H315.911V409.16Z" fill="#E6A47B"/>
<path d="M315.911 386.572H293.355V409.16H315.911V386.572Z" fill="#E6A47B"/>
<path d="M315.911 364.053H293.355V386.572H315.911V364.053Z" fill="#E6A47B"/>
<path d="M315.911 341.488H293.355V364.053H315.911V341.488Z" fill="#F4D9AE"/>
<path d="M315.911 318.947H293.355V341.489H315.911V318.947Z" fill="#F4D9AE"/>
<path d="M315.934 296.381H293.379V318.923H315.934V296.381Z" fill="#F7C186"/>
<path d="M315.934 273.816H293.379V296.381H315.934V273.816Z" fill="#F7C186"/>
<path d="M315.934 251.252H293.379V273.817H315.934V251.252Z" fill="#F7C186"/>
<path d="M315.934 228.709H293.379V251.251H315.934V228.709Z" fill="#F7C186"/>
<path d="M315.958 206.145H293.402V228.686H315.958V206.145Z" fill="#F7C186"/>
<path d="M315.911 183.648H293.355V206.19H315.911V183.648Z" fill="#E6A47B"/>
<path d="M315.911 161.084H293.355V183.649H315.911V161.084Z" fill="#F4D9AE"/>
<path d="M315.911 138.541H293.355V161.083H315.911V138.541Z" fill="#F4D9AE"/>
<path d="M293.357 544.457H270.778V566.999H293.357V544.457Z" fill="#E6A47B"/>
<path d="M293.357 521.916H270.778V544.458H293.357V521.916Z" fill="#F4D9AE"/>
<path d="M293.357 476.811H270.778V499.352H293.357V476.811Z" fill="#F7C186"/>
<path d="M293.357 454.244H270.778V476.809H293.357V454.244Z" fill="#F7C186"/>
<path d="M293.357 431.703H270.778V454.245H293.357V431.703Z" fill="#F7C186"/>
<path d="M293.357 409.16H270.778V431.702H293.357V409.16Z" fill="#F7C186"/>
<path d="M293.357 386.572H270.778V409.16H293.357V386.572Z" fill="#F7C186"/>
<path d="M293.357 364.053H270.778V386.572H293.357V364.053Z" fill="#E6A47B"/>
<path d="M293.357 341.488H270.778V364.053H293.357V341.488Z" fill="#F4D9AE"/>
<path d="M293.357 318.947H270.778V341.489H293.357V318.947Z" fill="#F4D9AE"/>
<path d="M293.357 296.404H270.778V318.946H293.357V296.404Z" fill="#F7C186"/>
<path d="M293.379 273.816H270.801V296.381H293.379V273.816Z" fill="#F7C186"/>
<path d="M293.379 251.252H270.801V273.817H293.379V251.252Z" fill="#F7C186"/>
<path d="M293.379 228.709H270.801V251.251H293.379V228.709Z" fill="#F7C186"/>
<path d="M293.379 206.168H270.801V228.71H293.379V206.168Z" fill="#F7C186"/>
<path d="M293.401 183.602H270.823V206.144H293.401V183.602Z" fill="#F7C186"/>
<path d="M293.357 161.084H270.778V183.649H293.357V161.084Z" fill="#E6A47B"/>
<path d="M293.357 138.541H270.778V161.083H293.357V138.541Z" fill="#F4D9AE"/>
<path d="M293.357 116H270.778V138.542H293.357V116Z" fill="#F4D9AE"/>
<path d="M270.777 544.457H248.222V566.999H270.777V544.457Z" fill="#E6A47B"/>
<path d="M270.777 521.916H248.222V544.458H270.777V521.916Z" fill="#F4D9AE"/>
<path d="M270.777 499.352H248.222V521.917H270.777V499.352Z" fill="#F4D9AE"/>
<path d="M270.777 476.811H248.222V499.352H270.777V476.811Z" fill="#E6A47B"/>
<path d="M270.777 454.244H248.222V476.809H270.777V454.244Z" fill="#E6A47B"/>
<path d="M270.777 431.703H248.222V454.245H270.777V431.703Z" fill="#E6A47B"/>
<path d="M270.777 409.16H248.222V431.702H270.777V409.16Z" fill="#E6A47B"/>
<path d="M270.777 386.572H248.222V409.16H270.777V386.572Z" fill="#E6A47B"/>
<path d="M270.777 364.053H248.222V386.572H270.777V364.053Z" fill="#E6A47B"/>
<path d="M270.777 341.488H248.222V364.053H270.777V341.488Z" fill="#F4D9AE"/>
<path d="M270.777 318.947H248.222V341.489H270.777V318.947Z" fill="#F4D9AE"/>
<path d="M270.801 296.381H248.246V318.923H270.801V296.381Z" fill="#F7C186"/>
<path d="M270.801 273.816H248.246V296.381H270.801V273.816Z" fill="#F7C186"/>
<path d="M270.801 251.252H248.246V273.817H270.801V251.252Z" fill="#F7C186"/>
<path d="M270.801 228.709H248.246V251.251H270.801V228.709Z" fill="#F7C186"/>
<path d="M270.824 206.145H248.269V228.686H270.824V206.145Z" fill="#F7C186"/>
<path d="M270.777 183.648H248.222V206.19H270.777V183.648Z" fill="#E6A47B"/>
<path d="M270.777 161.084H248.222V183.649H270.777V161.084Z" fill="#F4D9AE"/>
<path d="M270.777 138.541H248.222V161.083H270.777V138.541Z" fill="#F4D9AE"/>
<path d="M248.223 544.457H225.645V566.999H248.223V544.457Z" fill="#E6A47B"/>
<path d="M248.223 521.916H225.645V544.458H248.223V521.916Z" fill="#F4D9AE"/>
<path d="M248.223 499.352H225.645V521.917H248.223V499.352Z" fill="#F4D9AE"/>
<path d="M248.223 476.811H225.645V499.352H248.223V476.811Z" fill="#F4D9AE"/>
<path d="M248.223 454.244H225.645V476.809H248.223V454.244Z" fill="#F4D9AE"/>
<path d="M248.223 431.703H225.645V454.245H248.223V431.703Z" fill="#F4D9AE"/>
<path d="M248.223 409.16H225.645V431.702H248.223V409.16Z" fill="#F4D9AE"/>
<path d="M248.223 386.572H225.645V409.16H248.223V386.572Z" fill="#F4D9AE"/>
<path d="M248.223 364.053H225.645V386.572H248.223V364.053Z" fill="#F4D9AE"/>
<path d="M248.223 341.488H225.645V364.053H248.223V341.488Z" fill="#F4D9AE"/>
<path d="M248.223 318.947H225.645V341.489H248.223V318.947Z" fill="#F4D9AE"/>
<path d="M248.245 296.381H225.667V318.923H248.245V296.381Z" fill="#F7C186"/>
<path d="M248.245 273.816H225.667V296.381H248.245V273.816Z" fill="#F7C186"/>
<path d="M248.245 251.252H225.667V273.817H248.245V251.252Z" fill="#F7C186"/>
<path d="M248.269 228.688V251.229L225.645 251.275V228.733L248.269 228.688Z" fill="#F7C186"/>
<path d="M248.223 206.191H225.645V228.733H248.223V206.191Z" fill="#E6A47B"/>
<path d="M248.223 183.648H225.645V206.19H248.223V183.648Z" fill="#F4D9AE"/>
<path d="M248.223 161.084H225.645V183.649H248.223V161.084Z" fill="#F4D9AE"/>
<path d="M225.644 544.457H203.089V566.999H225.644V544.457Z" fill="#E6A47B"/>
<path d="M225.644 521.916H203.089V544.458H225.644V521.916Z" fill="#F4D9AE"/>
<path d="M225.644 499.352H203.089V521.917H225.644V499.352Z" fill="#F4D9AE"/>
<path d="M225.644 476.811H203.089V499.352H225.644V476.811Z" fill="#F4D9AE"/>
<path d="M225.644 454.244H203.089V476.809H225.644V454.244Z" fill="#F4D9AE"/>
<path d="M225.644 431.703H203.089V454.245H225.644V431.703Z" fill="#F4D9AE"/>
<path d="M225.644 409.16H203.089V431.702H225.644V409.16Z" fill="#F4D9AE"/>
<path d="M225.644 386.572H203.089V409.16H225.644V386.572Z" fill="#F4D9AE"/>
<path d="M225.644 364.053H203.089V386.572H225.644V364.053Z" fill="#F4D9AE"/>
<path d="M225.644 341.488H203.089V364.053H225.644V341.488Z" fill="#F4D9AE"/>
<path d="M225.644 318.947H203.089V341.489H225.644V318.947Z" fill="#F4D9AE"/>
<path d="M225.668 296.381H203.112V318.923H225.668V296.381Z" fill="#F7C186"/>
<path d="M225.668 273.816H203.112V296.381H225.668V273.816Z" fill="#F7C186"/>
<path d="M225.69 251.229H203.135V273.793H225.69V251.229Z" fill="#F7C186"/>
<path d="M225.644 228.732H203.089V251.274H225.644V228.732Z" fill="#E6A47B"/>
<path d="M225.644 206.191H203.089V228.733H225.644V206.191Z" fill="#F4D9AE"/>
<path d="M225.644 183.648H203.089V206.19H225.644V183.648Z" fill="#F4D9AE"/>
<path d="M203.089 544.457H180.511V566.999H203.089V544.457Z" fill="#E6A47B"/>
<path d="M203.089 521.916H180.511V544.458H203.089V521.916Z" fill="#F4D9AE"/>
<path d="M203.089 499.352H180.511V521.917H203.089V499.352Z" fill="#F4D9AE"/>
<path d="M203.089 476.811H180.511V499.352H203.089V476.811Z" fill="#E6A47B"/>
<path d="M180.533 499.352H157.955V521.894H180.533V499.352Z" fill="#E6A47B"/>
<path d="M203.089 454.244H180.511V476.809H203.089V454.244Z" fill="#E6A47B"/>
<path d="M203.089 431.703H180.511V454.245H203.089V431.703Z" fill="#E6A47B"/>
<path d="M203.089 409.16H180.511V431.702H203.089V409.16Z" fill="#E6A47B"/>
<path d="M203.089 386.572H180.511V409.16H203.089V386.572Z" fill="#E6A47B"/>
<path d="M203.089 364.053H180.511V386.572H203.089V364.053Z" fill="#E6A47B"/>
<path d="M203.089 341.488H180.511V364.053H203.089V341.488Z" fill="#F4D9AE"/>
<path d="M203.089 318.947H180.511V341.489H203.089V318.947Z" fill="#F4D9AE"/>
<path d="M203.112 296.381H180.534V318.923H203.112V296.381Z" fill="#F7C186"/>
<path d="M203.135 273.793H180.557V296.358H203.135V273.793Z" fill="#F7C186"/>
<path d="M203.089 251.273H180.511V273.838H203.089V251.273Z" fill="#E6A47B"/>
<path d="M203.089 228.732H180.511V251.274H203.089V228.732Z" fill="#F4D9AE"/>
<path d="M203.089 206.191H180.511V228.733H203.089V206.191Z" fill="#F4D9AE"/>
<path d="M180.51 544.457H157.955V566.999H180.51V544.457Z" fill="#E6A47B"/>
<path d="M180.51 521.916H157.955V544.458H180.51V521.916Z" fill="#F4D9AE"/>
<path d="M180.51 476.811H157.955V499.352H180.51V476.811Z" fill="#F7C186"/>
<path d="M180.51 454.244H157.955V476.809H180.51V454.244Z" fill="#F7C186"/>
<path d="M180.51 431.703H157.955V454.245H180.51V431.703Z" fill="#F7C186"/>
<path d="M180.51 409.16H157.955V431.702H180.51V409.16Z" fill="#F7C186"/>
<path d="M180.51 386.572H157.955V409.16H180.51V386.572Z" fill="#F7C186"/>
<path d="M180.51 364.053H157.955V386.572H180.51V364.053Z" fill="#E6A47B"/>
<path d="M180.51 341.488H157.955V364.053H180.51V341.488Z" fill="#F4D9AE"/>
<path d="M180.51 318.947H157.955V341.489H180.51V318.947Z" fill="#F4D9AE"/>
<path d="M180.556 296.359V318.901L157.955 318.947V296.405L180.556 296.359Z" fill="#F7C186"/>
<path d="M180.51 273.84H157.955V296.405H180.51V273.84Z" fill="#E6A47B"/>
<path d="M180.51 251.273H157.955V273.838H180.51V251.273Z" fill="#F4D9AE"/>
<path d="M180.51 228.732H157.955V251.274H180.51V228.732Z" fill="#F4D9AE"/>
<path d="M157.955 544.457H135.423V566.999H157.955V544.457Z" fill="#E6A47B"/>
<path d="M157.955 521.916H135.423V544.458H157.955V521.916Z" fill="#F4D9AE"/>
<path d="M157.955 499.352H135.423V521.917H157.955V499.352Z" fill="#F4D9AE"/>
<path d="M157.955 476.811H135.423V499.352H157.955V476.811Z" fill="#E6A47B"/>
<path d="M157.955 454.244H135.423V476.809H157.955V454.244Z" fill="#E6A47B"/>
<path d="M157.955 431.703H135.423V454.245H157.955V431.703Z" fill="#E6A47B"/>
<path d="M157.955 409.16H135.423V431.702H157.955V409.16Z" fill="#E6A47B"/>
<path d="M157.955 386.572H135.423V409.16H157.955V386.572Z" fill="#E6A47B"/>
<path d="M157.955 364.053H135.423V386.572H157.955V364.053Z" fill="#E6A47B"/>
<path d="M157.955 341.488H135.423V364.053H157.955V341.488Z" fill="#F4D9AE"/>
<path d="M157.955 318.947H135.423V341.489H157.955V318.947Z" fill="#F4D9AE"/>
<path d="M157.955 296.404H135.423V318.946H157.955V296.404Z" fill="#E6A47B"/>
<path d="M157.955 273.84H135.423V296.405H157.955V273.84Z" fill="#F4D9AE"/>
<path d="M157.955 251.273H135.423V273.838H157.955V251.273Z" fill="#F4D9AE"/>
<path d="M135.423 544.457H112.821V566.999H135.423V544.457Z" fill="#E6A47B"/>
<path d="M135.423 521.916H112.821V544.458H135.423V521.916Z" fill="#F4D9AE"/>
<path d="M135.423 499.352H112.821V521.917H135.423V499.352Z" fill="#F4D9AE"/>
<path d="M135.423 476.811H112.821V499.352H135.423V476.811Z" fill="#F4D9AE"/>
<path d="M135.423 454.244H112.821V476.809H135.423V454.244Z" fill="#F4D9AE"/>
<path d="M135.423 431.703H112.821V454.245H135.423V431.703Z" fill="#F4D9AE"/>
<path d="M135.423 409.16H112.821V431.702H135.423V409.16Z" fill="#F4D9AE"/>
<path d="M135.423 386.572H112.821V409.16H135.423V386.572Z" fill="#F4D9AE"/>
<path d="M135.423 364.053H112.821V386.572H135.423V364.053Z" fill="#F4D9AE"/>
<path d="M135.423 341.488H112.821V364.053H135.423V341.488Z" fill="#F4D9AE"/>
<path d="M135.423 318.947H112.821V341.489H135.423V318.947Z" fill="#F4D9AE"/>
<path d="M135.423 296.404H112.821V318.946H135.423V296.404Z" fill="#F4D9AE"/>
<path d="M135.423 273.84H112.821V296.405H135.423V273.84Z" fill="#F4D9AE"/>
<path d="M112.822 544.457H90.2666V566.999H112.822V544.457Z" fill="#E6A47B"/>
<path d="M112.822 521.916H90.2666V544.458H112.822V521.916Z" fill="#F4D9AE"/>
<path d="M112.822 499.352H90.2666V521.917H112.822V499.352Z" fill="#F4D9AE"/>
<path d="M112.822 476.811H90.2666V499.352H112.822V476.811Z" fill="#F4D9AE"/>
<path d="M112.822 454.244H90.2666V476.809H112.822V454.244Z" fill="#F4D9AE"/>
<path d="M112.822 431.703H90.2666V454.245H112.822V431.703Z" fill="#F4D9AE"/>
<path d="M112.822 409.16H90.2666V431.702H112.822V409.16Z" fill="#F4D9AE"/>
<path d="M112.822 386.572H90.2666V409.16H112.822V386.572Z" fill="#F4D9AE"/>
<path d="M112.822 364.053H90.2666V386.572H112.822V364.053Z" fill="#F4D9AE"/>
<path d="M112.822 341.488H90.2666V364.053H112.822V341.488Z" fill="#F4D9AE"/>
<path d="M112.822 318.947H90.2666V341.489H112.822V318.947Z" fill="#F4D9AE"/>
<path d="M112.822 296.404H90.2666V318.946H112.822V296.404Z" fill="#F4D9AE"/>
<path d="M112.822 273.84H90.2666V296.405H112.822V273.84Z" fill="#F4D9AE"/>
<path d="M90.2671 544.457H67.7119V566.999H90.2671V544.457Z" fill="#E6A47B"/>
<path d="M90.2671 521.916H67.7119V544.458H90.2671V521.916Z" fill="#F4D9AE"/>
<path d="M90.2671 499.352H67.7119V521.917H90.2671V499.352Z" fill="#F4D9AE"/>
<path d="M90.2671 476.811H67.7119V499.352H90.2671V476.811Z" fill="#E6A47B"/>
<path d="M90.2671 454.244H67.7119V476.809H90.2671V454.244Z" fill="#E6A47B"/>
<path d="M90.2671 431.703H67.7119V454.245H90.2671V431.703Z" fill="#E6A47B"/>
<path d="M90.2671 409.16H67.7119V431.702H90.2671V409.16Z" fill="#E6A47B"/>
<path d="M90.2671 386.572H67.7119V409.16H90.2671V386.572Z" fill="#E6A47B"/>
<path d="M90.2671 364.053H67.7119V386.572H90.2671V364.053Z" fill="#E6A47B"/>
<path d="M90.2671 341.488H67.7119V364.053H90.2671V341.488Z" fill="#F4D9AE"/>
<path d="M90.2671 318.947H67.7119V341.489H90.2671V318.947Z" fill="#F4D9AE"/>
<path d="M90.2671 296.404H67.7119V318.946H90.2671V296.404Z" fill="#E6A47B"/>
<path d="M90.2671 273.84H67.7119V296.405H90.2671V273.84Z" fill="#F4D9AE"/>
<path d="M67.7115 544.457H45.1562V566.999H67.7115V544.457Z" fill="#E6A47B"/>
<path d="M67.7115 521.916H45.1562V544.458H67.7115V521.916Z" fill="#F4D9AE"/>
<path d="M67.7115 499.352H45.1562V521.917H67.7115V499.352Z" fill="#E6A47B"/>
<path d="M67.7115 476.811H45.1562V499.352H67.7115V476.811Z" fill="#F7C186"/>
<path d="M67.7115 454.244H45.1562V476.809H67.7115V454.244Z" fill="#F7C186"/>
<path d="M67.7115 431.703H45.1562V454.245H67.7115V431.703Z" fill="#F7C186"/>
<path d="M67.7115 409.16H45.1562V431.702H67.7115V409.16Z" fill="#F7C186"/>
<path d="M67.7115 386.572H45.1562V409.16H67.7115V386.572Z" fill="#F7C186"/>
<path d="M67.7115 364.053H45.1562V386.572H67.7115V364.053Z" fill="#E6A47B"/>
<path d="M67.7115 341.488H45.1562V364.053H67.7115V341.488Z" fill="#E6A47B"/>
<path d="M67.7115 318.947H45.1562V341.489H67.7115V318.947Z" fill="#E6A47B"/>
<path d="M67.7115 296.404H45.1562V318.946H67.7115V296.404Z" fill="#E6A47B"/>
<path d="M45.1324 296.404H22.5771V318.946H45.1324V296.404Z" fill="#E6A47B"/>
<path d="M67.7115 273.84H45.1562V296.405H67.7115V273.84Z" fill="#F4D9AE"/>
<path d="M45.1554 544.457H22.5771V566.999H45.1554V544.457Z" fill="#E6A47B"/>
<path d="M45.1554 521.916H22.5771V544.458H45.1554V521.916Z" fill="#F7C186"/>
<path d="M45.1554 499.352H22.5771V521.917H45.1554V499.352Z" fill="#F7C186"/>
<path d="M45.1554 476.811H22.5771V499.352H45.1554V476.811Z" fill="#F7C186"/>
<path d="M45.1554 454.244H22.5771V476.809H45.1554V454.244Z" fill="#F7C186"/>
<path d="M45.1554 431.703H22.5771V454.245H45.1554V431.703Z" fill="#F7C186"/>
<path d="M45.1554 409.16H22.5771V431.702H45.1554V409.16Z" fill="#F7C186"/>
<path d="M45.1554 386.572H22.5771V409.16H45.1554V386.572Z" fill="#F7C186"/>
<path d="M45.1554 364.053H22.5771V386.572H45.1554V364.053Z" fill="#F7C186"/>
<path d="M45.1554 341.488H22.5771V364.053H45.1554V341.488Z" fill="#F7C186"/>
<path d="M45.1554 318.947H22.5771V341.489H45.1554V318.947Z" fill="#F7C186"/>
<path d="M45.1554 273.84H22.5771V296.405H45.1554V273.84Z" fill="#F4D9AE"/>
<path d="M22.5782 273.84H0V296.405H22.5782V273.84Z" fill="#F4D9AE"/>
</g>
<path d="M463.472 141.151L447.134 145.113L451.1 161.468L467.439 157.505L463.472 141.151Z" fill="#FFCD00"/>
<path d="M479.822 137.188L463.467 141.154L467.433 157.509L483.788 153.542L479.822 137.188Z" fill="#FFCD00"/>
<path d="M492.212 116.893L475.874 120.855L479.837 137.194L496.175 133.231L492.212 116.893Z" fill="#FFCD00"/>
<path d="M508.539 112.914L492.201 116.877L496.164 133.215L512.502 129.252L508.539 112.914Z" fill="#FFCD00"/>
<path d="M447.141 145.109L430.786 149.076L434.753 165.431L451.108 161.464L447.141 145.109Z" fill="#FFCD00"/>
<path d="M475.863 120.856L459.508 124.822L463.47 141.16L479.825 137.194L475.863 120.856Z" fill="#FFCD00"/>
<path d="M97.3654 85.8953L85.4775 97.7832L97.3654 109.671L109.253 97.7832L97.3654 85.8953Z" fill="#FFCD00"/>
<path d="M109.255 97.782L97.3672 109.67L109.255 121.558L121.143 109.67L109.255 97.782Z" fill="#FFCD00"/>
<path d="M85.467 73.9891L73.5791 85.877L85.4791 97.777L97.367 85.8891L85.467 73.9891Z" fill="#FFCD00"/>
<path d="M121.141 109.677L109.253 121.564L121.153 133.464L133.041 121.577L121.141 109.677Z" fill="#FFCD00"/>
<path d="M61.6862 74.0043L49.7861 85.9043L61.674 97.7922L73.574 85.8922L61.6862 74.0043Z" fill="#FFCD00"/>
<path d="M37.9 50.2094L26 62.1094L37.9 74.0094L49.8 62.1094L37.9 50.2094Z" fill="#FFCD00"/>
<path d="M73.5729 85.8734L61.6729 97.7734L73.5729 109.673L85.4729 97.7734L73.5729 85.8734Z" fill="#FFCD00"/>
<path d="M49.7985 62.1156L37.8984 74.0156L49.7863 85.9035L61.6863 74.0035L49.7985 62.1156Z" fill="#FFCD00"/>
<path d="M418.032 71.3692L409.074 85.5957L423.315 94.5624L432.273 80.3359L418.032 71.3692Z" fill="#FFCD00"/>
<path d="M426.995 57.1262L418.028 71.3672L432.269 80.3339L441.236 66.0929L426.995 57.1262Z" fill="#FFCD00"/>
<path d="M435.941 42.9103L426.983 57.1367L441.224 66.1034L450.182 51.8769L435.941 42.9103Z" fill="#FFCD00"/>
<path d="M205.137 34.062L190.808 42.9199L199.647 57.2204L213.977 48.3625L205.137 34.062Z" fill="#FFCD00"/>
<path d="M196.298 19.7515L181.969 28.6094L190.809 42.9098L205.138 34.0519L196.298 19.7515Z" fill="#FFCD00"/>
<path d="M187.448 5.4468L173.118 14.3047L181.967 28.6197L196.297 19.7618L187.448 5.4468Z" fill="#FFCD00"/>
<path d="M173.125 14.3047L158.824 23.1445L167.673 37.4596L181.974 28.6197L173.125 14.3047Z" fill="#FFCD00"/>
<path d="M164.274 -1.09523e-06L149.974 8.83984L158.813 23.1403L173.114 14.3004L164.274 -1.09523e-06Z" fill="#FFCD00"/>
<defs>
<clipPath id="clip0">
<rect width="519" height="451" fill="white" transform="translate(0 116)"/>
</clipPath>
</defs>
</svg>
