<svg width="62" height="63" viewBox="0 0 62 63" fill="none" xmlns="http://www.w3.org/2000/svg">
<path d="M46.4261 15.6064L54.3389 0H46.4261L38.7486 15.6064H46.4261Z" fill="#8C8C8C"/>
<path d="M7.67708 15.6064L15.5898 0H7.67708L-0.000414848 15.6064H7.67708Z" fill="#8C8C8C"/>
<path d="M15.6628 15.6064L7.75 0H15.6628L23.3403 15.6064H15.6628Z" fill="#8C8C8C"/>
<path d="M54.2389 15.6064L46.3262 0H54.2389L61.9164 15.6064H54.2389Z" fill="#8C8C8C"/>
<path d="M38.7949 54.1294L31.108 46.4346L23.421 54.3555L23.421 38.7491L38.7949 38.7491L38.7949 54.1294Z" fill="#8C8C8C"/>
<path d="M21.2454 28.9223L26.7401 31.1167L21.2454 33.0946L19.0532 38.8116L16.8515 33.0946L11.3662 31.1167L16.8515 28.9223L19.0532 23.4219L21.2454 28.9223Z" fill="#8C8C8C"/>
<path d="M44.3226 28.9223L49.8173 31.1167L44.3226 33.0946L42.1303 38.8116L39.9287 33.0946L34.4434 31.1167L39.9287 28.9223L42.1303 23.4219L44.3226 28.9223Z" fill="#8C8C8C"/>
<path d="M11.471 31.097C11.471 27.8792 12.6483 25.1695 14.9841 22.9772C17.1786 20.6344 19.8911 19.4678 23.1122 19.4678L23.1122 15.7324C18.8645 15.7324 15.2007 17.1908 12.1209 20.1263C9.04107 23.203 7.50586 26.8631 7.50586 31.1065L11.471 31.1065L11.471 31.097Z" fill="#8C8C8C"/>
<path d="M50.2946 31.097C50.2946 27.8792 49.1173 25.1695 46.7815 22.9772C44.587 20.6344 41.8745 19.4678 38.6534 19.4678L38.6534 15.7324C42.9011 15.7324 46.5649 17.1908 49.6447 20.1263C52.7246 23.203 54.2598 26.8631 54.2598 31.1065L50.2946 31.1065L50.2946 31.097Z" fill="#8C8C8C"/>
<path d="M11.5785 47.6354C11.5785 50.8532 12.7558 53.5629 15.0915 55.7552C17.286 58.098 19.9985 59.2647 23.2197 59.2647L23.2197 63C18.9719 63 15.3082 61.5417 12.2283 58.6061C9.14849 55.5294 7.61328 51.8693 7.61328 47.626L11.5785 47.626L11.5785 47.6354Z" fill="#8C8C8C"/>
<path d="M50.1872 47.6354C50.1872 50.8532 49.0099 53.5629 46.6741 55.7552C44.4796 58.098 41.7671 59.2647 38.546 59.2647L38.546 63C42.7937 63 46.4575 61.5417 49.5373 58.6061C52.6171 55.5294 54.1523 51.8693 54.1523 47.626L50.1872 47.626L50.1872 47.6354Z" fill="#8C8C8C"/>
</svg>
