<svg width="127" height="139" viewBox="0 0 127 139" fill="none" xmlns="http://www.w3.org/2000/svg">
<path d="M101.918 126.776L75.3369 126.736L80.7782 116.031L107.21 116.363L101.918 126.776Z" fill="#E0E0E0"/>
<path d="M38.272 126.336L11.6914 126.297L17.1327 115.591L43.5643 115.924L38.272 126.336Z" fill="#E0E0E0"/>
<path d="M86.3344 33.4963C87.7021 39.8025 87.687 45.507 86.2848 50.5899C85.1002 55.6258 82.8766 58.4959 79.614 59.1999C86.1391 57.7918 91.0717 54.3371 94.4511 48.8275C98.0283 43.2753 99.143 37.3439 97.7632 31.0299L86.3344 33.4963Z" fill="#E0E0E0"/>
<path d="M99.798 11.917C94.6896 15.8595 91.0265 20.2324 88.8247 25.0235C86.4868 29.6385 86.3388 33.2661 88.3807 35.9063C84.2968 30.626 82.7494 24.8062 83.7137 18.415C84.5542 11.8638 87.5224 6.60906 92.645 2.6684L99.798 11.917Z" fill="#E0E0E0"/>
<path d="M67.0043 36.8429L75.2791 40.3573L66.867 43.1811L63.3486 51.7937L60.1922 43.0365L51.9245 39.8514L60.3295 36.6983L63.855 28.4151L67.0043 36.8429Z" fill="#E0E0E0"/>
<path d="M50.7984 62.9435C54.3298 59.5619 58.5408 58.0062 63.4013 58.2658C68.2786 58.2121 72.4095 59.9628 75.7946 63.4978L79.8939 59.5723C75.4299 54.9107 69.9792 52.4225 63.5211 52.1276C56.908 51.9809 51.278 54.1425 46.6211 58.6018L50.7881 62.9534L50.7984 62.9435Z" fill="#E0E0E0"/>
<path d="M21.8968 86.6268C18.3655 90.0084 16.629 94.148 16.6778 99.0153C16.4129 103.886 17.9831 108.088 21.3682 111.623L17.2689 115.549C12.8049 110.887 10.5551 105.334 10.5401 98.8691C10.68 92.2559 13.0834 86.7247 17.7402 82.2653L21.9072 86.6169L21.8968 86.6268Z" fill="#E0E0E0"/>
<path d="M103.044 111.828C106.575 108.447 108.311 104.307 108.263 99.4398C108.528 94.5695 106.957 90.3666 103.572 86.8316L107.672 82.9062C112.135 87.5678 114.385 93.1211 114.4 99.586C114.26 106.199 111.857 111.73 107.2 116.19L103.033 111.838L103.044 111.828Z" fill="#E0E0E0"/>
<path d="M48.7631 126.458L75.3496 126.637L69.9847 115.877L43.5578 116.018L48.7631 126.458Z" fill="#E0E0E0"/>
</svg>
