<svg width="76" height="143" viewBox="0 0 76 143" fill="none" xmlns="http://www.w3.org/2000/svg">
<path d="M36.9683 15.7867C44.0717 18.9974 49.5961 23.1169 53.5193 28.135C57.5534 32.9083 58.7383 37.1312 57.0738 40.8036C60.4028 33.4587 60.5999 26.1866 57.6855 18.9428C54.872 11.4763 49.9186 6.1267 42.7991 2.92209L36.9683 15.7867Z" fill="white"/>
<path d="M18.1596 40.6021C19.9043 33.0046 22.8517 26.7754 26.9962 21.9385C30.8788 17.0411 34.7845 15.0457 38.7134 15.9521C30.8557 14.1392 23.6878 15.382 17.1622 19.6696C10.3985 23.9022 6.13239 29.8145 4.39689 37.4267L18.1596 40.6021Z" fill="white"/>
<path d="M57.6771 38.3635C55.6634 45.8942 52.4964 52.0146 48.1826 56.7011C44.1283 61.4573 40.1541 63.3127 36.2599 62.2671C44.0482 64.3582 51.2557 63.371 57.9296 59.3182C64.8396 55.3287 69.3132 49.5718 71.3182 42.0262L57.6771 38.3635Z" fill="white"/>
<path d="M37.257 124.049L47.3429 128.078L37.257 131.708L33.233 142.202L29.1917 131.708L19.123 128.078L29.1917 124.049L33.233 113.953L37.257 124.049Z" fill="white"/>
<path d="M37.4723 94.4112L37.501 62.293L24.5407 68.8496L24.8973 100.773L37.4723 94.4112Z" fill="white"/>
</svg>
