<svg width="101" height="126" viewBox="0 0 101 126" fill="none" xmlns="http://www.w3.org/2000/svg">
<path d="M14.7539 25.328C19.6044 20.4725 25.5497 18.0371 32.5746 18.0371C39.5995 18.0371 45.5295 20.4573 50.3953 25.328C47.8864 22.8165 44.0395 22.4816 38.8544 24.3234C33.6694 26.1651 28.6516 29.5137 23.801 34.3692L14.7539 25.328Z" fill="#E0E0E0"/>
<path d="M24.8535 0C31.7264 0 37.626 2.48102 42.5982 7.45829C47.5703 12.4356 50.0488 18.3413 50.0488 25.2212C50.0488 21.6747 47.5703 18.7066 42.5982 16.3474C37.626 13.9729 31.7111 12.7856 24.8535 12.7856V0Z" fill="#E0E0E0"/>
<path d="M77.2482 34.1383C72.3977 29.2828 67.2887 26.0103 61.9364 24.336C56.7514 22.4943 52.9044 22.8291 50.3955 25.3406C55.4133 20.3177 61.3434 17.8975 68.2162 18.0497C75.2411 18.0497 81.1863 20.4699 86.0369 25.3406L77.2482 34.1383Z" fill="#E0E0E0"/>
<path d="M75.5908 12.4356C68.718 12.4356 62.8183 13.7446 57.8462 16.3474C52.874 18.7218 50.3955 21.6747 50.3955 25.2212C50.3955 18.113 52.874 12.192 57.8462 7.45829C62.8183 2.48102 68.7332 0 75.5908 0V12.4356Z" fill="#E0E0E0"/>
<path d="M46.8937 41.1519L38.0138 37.6055L46.8937 34.409L50.4366 25.1699L53.9946 34.409L62.8594 37.6055L53.9946 41.1519L50.4366 50.041L46.8937 41.1519Z" fill="#E0E0E0"/>
<path d="M75.2426 75.3296L88.0303 100.551L75.2426 100.551L62.8351 75.3296L75.2426 75.3296Z" fill="#E0E0E0"/>
<path d="M87.9145 100.5L100.702 125.721L87.9145 125.721L75.507 100.499L87.9145 100.5Z" fill="#E0E0E0"/>
<path d="M62.7455 50.1597L75.5332 75.3809L62.7455 75.3809L50.338 50.1597L62.7455 50.1597Z" fill="#E0E0E0"/>
<path d="M25.4586 75.1558L12.6709 100.377L25.4586 100.377L37.8661 75.1558L25.4586 75.1558Z" fill="#E0E0E0"/>
<path d="M12.7877 100.326L0 125.547L12.7877 125.547L25.1952 100.326L12.7877 100.326Z" fill="#E0E0E0"/>
<path d="M37.9566 50.1597L25.1689 75.3809L37.9566 75.3809L50.3641 50.1597L37.9566 50.1597Z" fill="#E0E0E0"/>
</svg>
